<svg aria-hidden="true" style="position:absolute;overflow:hidden" xmlns="http://www.w3.org/2000/svg"><defs><symbol id="icon-menu" viewBox="0 0 46 32"><path fill="none" stroke="#d41443" stroke-width="2.286" style="stroke:var(--color1,#d41443)" d="M0 2.286h45.714M0 16h45.714M0 29.714h45.714"/></symbol><symbol id="icon-header_16" viewBox="0 0 31 32"><path fill="#fff" style="fill:var(--color2,#fff)" d="M19.636 5.818a5.818 5.818 0 1 0 11.636 0 5.818 5.818 0 0 0-11.636 0z"/><path fill="#d41443" style="fill:var(--color1,#d41443)" d="M8.885 20.602c0 .149-.414.271-1.242.367-.828.081-1.656.122-2.484.122s-1.364-.034-1.609-.102c-.231-.081-.346-.21-.346-.387v-8.797H1.127c-.231 0-.346-.495-.346-1.487s.115-1.887.346-2.688c.068-.258.787-.495 2.159-.713s2.423-.326 3.156-.326c.733 0 1.222.027 1.466.081s.428.122.55.204a.852.852 0 0 1 .285.244.802.802 0 0 1 .143.428v13.053zm7.924-8.41c.122-.109.448-.251.977-.428s1.127-.265 1.792-.265c.679 0 1.249.102 1.711.305.475.19.842.434 1.1.733.272.299.482.672.631 1.12.244.733.367 1.48.367 2.24s-.034 1.337-.102 1.731c-.054.38-.204.808-.448 1.283-.231.475-.55.876-.957 1.201-.394.326-.964.604-1.711.835-.733.217-1.595.326-2.586.326-2.131 0-3.74-.584-4.826-1.751-1.086-1.181-1.629-3.082-1.629-5.702 0-2.634.509-4.527 1.527-5.681 1.018-1.168 2.566-1.751 4.643-1.751 1.425 0 2.661.109 3.706.326 1.059.204 1.588.448 1.588.733 0 .353-.136.971-.407 1.853-.258.882-.495 1.324-.713 1.324-.068 0-.271-.034-.611-.102-.923-.19-1.765-.285-2.525-.285s-1.249.19-1.466.57c-.217.367-.326.91-.326 1.629.054-.068.143-.149.265-.244zm.448 1.833c-.394 0-.591.733-.591 2.199 0 1.453.197 2.179.591 2.179.421 0 .631-.726.631-2.179 0-1.466-.21-2.199-.631-2.199z"/><path fill="#fff" style="fill:var(--color2,#fff)" d="M11.217 30.615c-.275 0-.524-.062-.745-.186a1.422 1.422 0 0 1-.518-.529c-.124-.229-.186-.495-.186-.797s.062-.566.186-.791c.128-.229.301-.405.518-.529.221-.128.469-.192.745-.192.341 0 .628.089.861.268.237.178.386.417.448.716h-.5a.633.633 0 0 0-.285-.413.93.93 0 0 0-.529-.151.904.904 0 0 0-.809.489c-.089.163-.134.365-.134.605s.045.442.134.605a.952.952 0 0 0 .349.372.92.92 0 0 0 .46.122.964.964 0 0 0 .529-.145.655.655 0 0 0 .285-.425h.5c-.058.291-.206.527-.442.71s-.526.273-.867.273zm2.951 0c-.241 0-.44-.041-.599-.122a.83.83 0 0 1-.471-.768c0-.295.112-.522.337-.681s.531-.239.919-.239h.78v-.035c0-.252-.066-.442-.198-.57-.132-.132-.308-.198-.529-.198a.854.854 0 0 0-.495.145.617.617 0 0 0-.256.413h-.5a.934.934 0 0 1 .209-.529c.124-.143.277-.252.46-.326.182-.078.376-.116.582-.116.403 0 .706.109.908.326.206.213.308.498.308.855v1.775h-.436l-.029-.518a1.152 1.152 0 0 1-.361.419c-.155.113-.365.169-.628.169zm.076-.413a.79.79 0 0 0 .477-.145c.136-.097.239-.223.308-.378s.105-.318.105-.489v-.006h-.739c-.287 0-.491.05-.611.151a.459.459 0 0 0-.175.367.46.46 0 0 0 .163.367c.112.089.27.134.471.134zm2.269.343v-2.473h-.436v-.413h.436v-.5c0-.279.07-.483.209-.611s.343-.192.611-.192h.291v.419h-.215c-.147 0-.252.031-.314.093-.062.058-.093.159-.093.303v.489h.71v.413h-.71v2.473h-.489zm2.964.07c-.275 0-.52-.062-.733-.186a1.391 1.391 0 0 1-.506-.529 1.671 1.671 0 0 1-.18-.797c0-.303.06-.566.18-.791a1.29 1.29 0 0 1 .5-.529 1.45 1.45 0 0 1 .751-.192c.279 0 .52.064.721.192.206.124.363.289.471.495a1.408 1.408 0 0 1 .157.791v.145H18.54c.012.221.062.405.151.553a.952.952 0 0 0 .343.326c.14.074.287.111.442.111.202 0 .37-.047.506-.14s.235-.219.297-.378h.483a1.311 1.311 0 0 1-.448.669c-.217.175-.497.262-.838.262zm0-2.612a.984.984 0 0 0-.623.215c-.178.14-.281.345-.308.617h1.815c-.012-.26-.101-.463-.268-.611s-.372-.221-.617-.221zm3.121 2.612c-.345 0-.632-.087-.861-.262s-.363-.411-.401-.71h.5a.713.713 0 0 0 .239.396c.132.109.308.163.529.163.206 0 .357-.043.454-.128a.413.413 0 0 0 .145-.314c0-.175-.064-.291-.192-.349a2.436 2.436 0 0 0-.529-.157c-.155-.031-.31-.076-.465-.134s-.285-.14-.39-.244a.586.586 0 0 1-.157-.425c0-.252.093-.458.279-.617.19-.163.446-.244.768-.244.306 0 .557.078.751.233.198.151.312.369.343.652h-.483a.485.485 0 0 0-.192-.343.655.655 0 0 0-.425-.128c-.175 0-.31.037-.407.111a.354.354 0 0 0-.14.291c0 .116.06.207.18.273.124.066.291.122.5.169.178.039.347.087.506.145a.904.904 0 0 1 .396.25c.105.109.157.268.157.477a.793.793 0 0 1-.297.646c-.198.167-.467.25-.809.25z"/></symbol><symbol id="icon-arrow-right" viewBox="0 0 24 24"><path d="M11.293 5.707 16.586 11H5a1 1 0 0 0 0 2h11.586l-5.293 5.293a.999.999 0 1 0 1.414 1.414l7-7a1.006 1.006 0 0 0 0-1.414l-7-7a.999.999 0 1 0-1.414 1.414z"/></symbol><symbol id="icon-header_16_768" viewBox="0 0 31 32"><path fill="#fff" style="fill:var(--color2,#fff)" d="M19.636 5.818a5.818 5.818 0 1 0 11.636 0 5.818 5.818 0 0 0-11.636 0z"/><path fill="#d41443" style="fill:var(--color1,#d41443)" d="M8.885 20.602c0 .149-.414.271-1.242.367-.828.081-1.656.122-2.484.122s-1.364-.034-1.609-.102c-.231-.081-.346-.21-.346-.387v-8.797H1.127c-.231 0-.346-.495-.346-1.487s.115-1.887.346-2.688c.068-.258.787-.495 2.159-.713s2.423-.326 3.156-.326c.733 0 1.222.027 1.466.081s.428.122.55.204a.852.852 0 0 1 .285.244.802.802 0 0 1 .143.428v13.053zm7.924-8.41c.122-.109.448-.251.977-.428s1.127-.265 1.792-.265c.679 0 1.249.102 1.711.305.475.19.842.434 1.1.733.272.299.482.672.631 1.12.244.733.367 1.48.367 2.24s-.034 1.337-.102 1.731c-.054.38-.204.808-.448 1.283-.231.475-.55.876-.957 1.201-.394.326-.964.604-1.711.835-.733.217-1.595.326-2.586.326-2.131 0-3.74-.584-4.826-1.751-1.086-1.181-1.629-3.082-1.629-5.702 0-2.634.509-4.527 1.527-5.681 1.018-1.168 2.566-1.751 4.643-1.751 1.425 0 2.661.109 3.706.326 1.059.204 1.588.448 1.588.733 0 .353-.136.971-.407 1.853-.258.882-.495 1.324-.713 1.324-.068 0-.271-.034-.611-.102-.923-.19-1.765-.285-2.525-.285s-1.249.19-1.466.57c-.217.367-.326.91-.326 1.629.054-.068.143-.149.265-.244zm.448 1.833c-.394 0-.591.733-.591 2.199 0 1.453.197 2.179.591 2.179.421 0 .631-.726.631-2.179 0-1.466-.21-2.199-.631-2.199z"/><path fill="#fff" style="fill:var(--color2,#fff)" d="M11.217 30.615c-.275 0-.524-.062-.745-.186a1.422 1.422 0 0 1-.518-.529c-.124-.229-.186-.495-.186-.797s.062-.566.186-.791c.128-.229.301-.405.518-.529.221-.128.469-.192.745-.192.341 0 .628.089.861.268.237.178.386.417.448.716h-.5a.633.633 0 0 0-.285-.413.93.93 0 0 0-.529-.151.904.904 0 0 0-.809.489c-.089.163-.134.365-.134.605s.045.442.134.605a.952.952 0 0 0 .349.372.92.92 0 0 0 .46.122.964.964 0 0 0 .529-.145.655.655 0 0 0 .285-.425h.5c-.058.291-.206.527-.442.71s-.526.273-.867.273zm2.951 0c-.241 0-.44-.041-.599-.122a.83.83 0 0 1-.471-.768c0-.295.112-.522.337-.681s.531-.239.919-.239h.78v-.035c0-.252-.066-.442-.198-.57-.132-.132-.308-.198-.529-.198a.854.854 0 0 0-.495.145.617.617 0 0 0-.256.413h-.5a.934.934 0 0 1 .209-.529c.124-.143.277-.252.46-.326.182-.078.376-.116.582-.116.403 0 .706.109.908.326.206.213.308.498.308.855v1.775h-.436l-.029-.518a1.152 1.152 0 0 1-.361.419c-.155.113-.365.169-.628.169zm.076-.413a.79.79 0 0 0 .477-.145c.136-.097.239-.223.308-.378s.105-.318.105-.489v-.006h-.739c-.287 0-.491.05-.611.151a.459.459 0 0 0-.175.367.46.46 0 0 0 .163.367c.112.089.27.134.471.134zm2.269.343v-2.473h-.436v-.413h.436v-.5c0-.279.07-.483.209-.611s.343-.192.611-.192h.291v.419h-.215c-.147 0-.252.031-.314.093-.062.058-.093.159-.093.303v.489h.71v.413h-.71v2.473h-.489zm2.964.07c-.275 0-.52-.062-.733-.186a1.391 1.391 0 0 1-.506-.529 1.671 1.671 0 0 1-.18-.797c0-.303.06-.566.18-.791a1.29 1.29 0 0 1 .5-.529 1.45 1.45 0 0 1 .751-.192c.279 0 .52.064.721.192.206.124.363.289.471.495a1.408 1.408 0 0 1 .157.791v.145H18.54c.012.221.062.405.151.553a.952.952 0 0 0 .343.326c.14.074.287.111.442.111.202 0 .37-.047.506-.14s.235-.219.297-.378h.483a1.311 1.311 0 0 1-.448.669c-.217.175-.497.262-.838.262zm0-2.612a.984.984 0 0 0-.623.215c-.178.14-.281.345-.308.617h1.815c-.012-.26-.101-.463-.268-.611s-.372-.221-.617-.221zm3.121 2.612c-.345 0-.632-.087-.861-.262s-.363-.411-.401-.71h.5a.713.713 0 0 0 .239.396c.132.109.308.163.529.163.206 0 .357-.043.454-.128a.413.413 0 0 0 .145-.314c0-.175-.064-.291-.192-.349a2.436 2.436 0 0 0-.529-.157c-.155-.031-.31-.076-.465-.134s-.285-.14-.39-.244a.586.586 0 0 1-.157-.425c0-.252.093-.458.279-.617.19-.163.446-.244.768-.244.306 0 .557.078.751.233.198.151.312.369.343.652h-.483a.485.485 0 0 0-.192-.343.655.655 0 0 0-.425-.128c-.175 0-.31.037-.407.111a.354.354 0 0 0-.14.291c0 .116.06.207.18.273.124.066.291.122.5.169.178.039.347.087.506.145a.904.904 0 0 1 .396.25c.105.109.157.268.157.477a.793.793 0 0 1-.297.646c-.198.167-.467.25-.809.25z"/></symbol><symbol id="icon-header_23" viewBox="0 0 38 32"><path fill="#fff" style="fill:var(--color2,#fff)" d="M26.047 5.954A5.954 5.954 0 1 0 32 0a5.953 5.953 0 0 0-5.953 5.954z"/><path fill="#d41443" style="fill:var(--color1,#d41443)" d="M7.732 11.44c-.389 0-.729-.458-1.021-1.375a9.11 9.11 0 0 1-.417-2.646c0-.194.215-.41.646-.646.431-.25 1.084-.472 1.959-.667s1.827-.292 2.855-.292c3.987 0 5.98 1.396 5.98 4.188 0 .778-.167 1.507-.5 2.188s-.702 1.229-1.104 1.646a8.392 8.392 0 0 1-1.417 1.125c-.625.389-1.222.695-1.792.917h4.167c.083 0 .174.042.271.125.097.069.201.292.313.667.111.361.167.82.167 1.375 0 .542-.035 1-.104 1.375-.07.361-.153.625-.25.792-.208.375-.396.577-.563.604l-.104.021H7.691c-.875 0-1.313-1.368-1.313-4.105 0-.306.903-1.146 2.709-2.521.681-.5 1.306-1.049 1.875-1.646s.854-1.084.854-1.459c0-.417-.313-.625-.938-.625s-1.285.16-1.98.479c-.681.319-1.07.479-1.167.479zM31.18 9.71c0 1.403-.556 2.452-1.667 3.146.153.069.347.236.583.5.25.264.458.528.625.792.431.681.646 1.486.646 2.417 0 1.528-.549 2.653-1.646 3.376s-2.605 1.084-4.522 1.084c-.945 0-1.841-.076-2.688-.229-.834-.167-1.473-.347-1.917-.542-.445-.208-.667-.396-.667-.563 0-.764.083-1.438.25-2.021s.354-.993.563-1.229c.208-.25.41-.375.604-.375.056 0 .424.125 1.104.375s1.348.375 2 .375c.667 0 1-.208 1-.625 0-.57-.702-.875-2.105-.917-.556-.014-.861-.028-.917-.042-.292-.097-.438-.708-.438-1.834s.146-1.743.438-1.854c.056-.028.361-.042.917-.042 1.403-.028 2.105-.313 2.105-.854 0-.417-.306-.625-.917-.625-.597 0-1.264.146-2 .438s-1.139.438-1.209.438c-.319 0-.611-.465-.875-1.396s-.396-1.591-.396-1.98c0-.361.403-.729 1.209-1.104.889-.403 2.195-.604 3.917-.604 4.001 0 6.001 1.299 6.001 3.897z"/><path fill="#fff" style="fill:var(--color2,#fff)" d="M1.275 30.512v-2.53H.828v-.423h.447v-.512c0-.286.071-.494.214-.625s.351-.196.625-.196h.298v.429h-.22c-.151 0-.258.032-.321.095-.063.06-.095.163-.095.31v.5h.726v.423h-.726v2.53h-.5zm3.051.071c-.278 0-.528-.063-.75-.191s-.399-.306-.53-.536c-.127-.234-.191-.508-.191-.822s.066-.585.196-.816c.131-.234.308-.415.53-.542.226-.127.478-.191.756-.191s.528.063.75.191c.222.127.397.308.524.542.131.23.196.502.196.816s-.066.587-.196.822c-.131.23-.31.409-.536.536a1.483 1.483 0 0 1-.75.191zm0-.429a.925.925 0 0 0 .833-.5c.091-.167.137-.373.137-.619s-.046-.452-.137-.619c-.087-.167-.204-.292-.351-.375s-.304-.125-.47-.125a.925.925 0 0 0-.833.5c-.091.167-.137.373-.137.619s.046.452.137.619a.939.939 0 0 0 .351.375.942.942 0 0 0 .47.125zm3.523.429c-.278 0-.528-.063-.75-.191s-.399-.306-.53-.536c-.127-.234-.191-.508-.191-.822s.066-.585.196-.816c.131-.234.308-.415.53-.542.226-.127.478-.191.756-.191s.528.063.75.191c.222.127.397.308.524.542.131.23.196.502.196.816s-.066.587-.196.822c-.131.23-.31.409-.536.536a1.483 1.483 0 0 1-.75.191zm0-.429a.925.925 0 0 0 .833-.5c.091-.167.137-.373.137-.619s-.046-.452-.137-.619c-.087-.167-.204-.292-.351-.375s-.304-.125-.47-.125a.925.925 0 0 0-.833.5c-.091.167-.137.373-.137.619s.046.452.137.619a.939.939 0 0 0 .351.375.942.942 0 0 0 .47.125zm3.518.429a1.46 1.46 0 0 1-.774-.202 1.404 1.404 0 0 1-.512-.554c-.119-.234-.179-.5-.179-.798s.061-.562.185-.792c.123-.234.294-.417.512-.548a1.44 1.44 0 0 1 .774-.202c.242 0 .456.05.643.149s.331.238.435.417v-1.828h.5v4.287h-.452l-.048-.488c-.095.143-.232.272-.411.387s-.403.173-.673.173zm.053-.435a.996.996 0 0 0 .524-.137.943.943 0 0 0 .357-.393c.087-.167.131-.361.131-.583s-.044-.417-.131-.583a.904.904 0 0 0-.357-.387.962.962 0 0 0-.524-.143.981.981 0 0 0-.524.143.956.956 0 0 0-.357.387c-.083.167-.125.361-.125.583s.042.417.125.583a.999.999 0 0 0 .357.393c.155.091.329.137.524.137zm5.088.364c-.27 0-.482-.066-.637-.196s-.232-.367-.232-.708v-1.625h-.512v-.423h.512l.066-.708h.435v.708h.869v.423h-.869v1.625c0 .187.038.314.113.381.075.063.208.095.399.095h.31v.429h-.452zm1.135 0v-2.953h.452l.042.566c.091-.194.23-.349.417-.464s.417-.173.691-.173v.524h-.137c-.175 0-.335.032-.482.095-.147.06-.264.163-.351.31s-.131.349-.131.607v1.488h-.5zm4.747-2.953v2.953h-.452l-.03-.53c-.095.187-.232.333-.411.441s-.381.161-.607.161c-.349 0-.629-.105-.839-.316-.206-.214-.31-.542-.31-.982v-1.727h.5v1.673c0 .615.254.923.762.923a.817.817 0 0 0 .631-.274c.171-.187.256-.45.256-.792v-1.53h.5zm2.18 3.024c-.282 0-.536-.063-.762-.191a1.452 1.452 0 0 1-.53-.542c-.127-.234-.191-.506-.191-.816s.064-.579.191-.81c.131-.234.308-.415.53-.542.226-.131.48-.196.762-.196.349 0 .643.091.881.274.242.183.395.427.458.732h-.512a.648.648 0 0 0-.292-.423.955.955 0 0 0-.542-.155.925.925 0 0 0-.827.5c-.091.167-.137.373-.137.619s.046.452.137.619c.091.167.21.294.357.381a.942.942 0 0 0 .47.125c.206 0 .387-.05.542-.149a.67.67 0 0 0 .292-.435h.512c-.06.298-.21.54-.452.726s-.538.28-.887.28zm2.038-.071v-4.287h.5v2.578l1.209-1.244h.613l-1.31 1.334 1.476 1.619h-.637l-1.351-1.53v1.53h-.5zm3.957.071c-.353 0-.647-.089-.881-.268s-.371-.421-.411-.726h.512c.032.155.113.29.244.405.135.111.316.167.542.167.21 0 .365-.044.464-.131a.424.424 0 0 0 .149-.322c0-.179-.066-.298-.196-.357a2.503 2.503 0 0 0-.542-.161c-.159-.032-.318-.077-.476-.137s-.292-.143-.399-.25a.6.6 0 0 1-.161-.435.79.79 0 0 1 .286-.631c.194-.167.456-.25.786-.25.314 0 .57.079.768.238.202.155.319.377.351.667h-.494a.5.5 0 0 0-.196-.351.67.67 0 0 0-.435-.131c-.179 0-.318.038-.417.113a.362.362 0 0 0-.143.298c0 .119.062.212.185.28.127.067.298.125.512.173.183.04.355.089.518.149a.925.925 0 0 1 .405.256c.107.111.161.274.161.488a.811.811 0 0 1-.304.661c-.202.171-.478.256-.828.256z"/></symbol><symbol id="icon-header_23_768" viewBox="0 0 38 32"><path fill="#fff" style="fill:var(--color2,#fff)" d="M26.047 5.954A5.954 5.954 0 1 0 32 0a5.953 5.953 0 0 0-5.953 5.954z"/><path fill="#d41443" style="fill:var(--color1,#d41443)" d="M7.732 11.44c-.389 0-.729-.458-1.021-1.375a9.11 9.11 0 0 1-.417-2.646c0-.194.215-.41.646-.646.431-.25 1.084-.472 1.959-.667s1.827-.292 2.855-.292c3.987 0 5.98 1.396 5.98 4.188 0 .778-.167 1.507-.5 2.188s-.702 1.229-1.104 1.646a8.392 8.392 0 0 1-1.417 1.125c-.625.389-1.222.695-1.792.917h4.167c.083 0 .174.042.271.125.097.069.201.292.313.667.111.361.167.82.167 1.375 0 .542-.035 1-.104 1.375-.07.361-.153.625-.25.792-.208.375-.396.577-.563.604l-.104.021H7.691c-.875 0-1.313-1.368-1.313-4.105 0-.306.903-1.146 2.709-2.521.681-.5 1.306-1.049 1.875-1.646s.854-1.084.854-1.459c0-.417-.313-.625-.938-.625s-1.285.16-1.98.479c-.681.319-1.07.479-1.167.479zM31.18 9.71c0 1.403-.556 2.452-1.667 3.146.153.069.347.236.583.5.25.264.458.528.625.792.431.681.646 1.486.646 2.417 0 1.528-.549 2.653-1.646 3.376s-2.605 1.084-4.522 1.084c-.945 0-1.841-.076-2.688-.229-.834-.167-1.473-.347-1.917-.542-.445-.208-.667-.396-.667-.563 0-.764.083-1.438.25-2.021s.354-.993.563-1.229c.208-.25.41-.375.604-.375.056 0 .424.125 1.104.375s1.348.375 2 .375c.667 0 1-.208 1-.625 0-.57-.702-.875-2.105-.917-.556-.014-.861-.028-.917-.042-.292-.097-.438-.708-.438-1.834s.146-1.743.438-1.854c.056-.028.361-.042.917-.042 1.403-.028 2.105-.313 2.105-.854 0-.417-.306-.625-.917-.625-.597 0-1.264.146-2 .438s-1.139.438-1.209.438c-.319 0-.611-.465-.875-1.396s-.396-1.591-.396-1.98c0-.361.403-.729 1.209-1.104.889-.403 2.195-.604 3.917-.604 4.001 0 6.001 1.299 6.001 3.897z"/><path fill="#fff" style="fill:var(--color2,#fff)" d="M1.275 30.512v-2.53H.828v-.423h.447v-.512c0-.286.071-.494.214-.625s.351-.196.625-.196h.298v.429h-.22c-.151 0-.258.032-.321.095-.063.06-.095.163-.095.31v.5h.726v.423h-.726v2.53h-.5zm3.051.071c-.278 0-.528-.063-.75-.191s-.399-.306-.53-.536c-.127-.234-.191-.508-.191-.822s.066-.585.196-.816c.131-.234.308-.415.53-.542.226-.127.478-.191.756-.191s.528.063.75.191c.222.127.397.308.524.542.131.23.196.502.196.816s-.066.587-.196.822c-.131.23-.31.409-.536.536a1.483 1.483 0 0 1-.75.191zm0-.429a.925.925 0 0 0 .833-.5c.091-.167.137-.373.137-.619s-.046-.452-.137-.619c-.087-.167-.204-.292-.351-.375s-.304-.125-.47-.125a.925.925 0 0 0-.833.5c-.091.167-.137.373-.137.619s.046.452.137.619a.939.939 0 0 0 .351.375.942.942 0 0 0 .47.125zm3.523.429c-.278 0-.528-.063-.75-.191s-.399-.306-.53-.536c-.127-.234-.191-.508-.191-.822s.066-.585.196-.816c.131-.234.308-.415.53-.542.226-.127.478-.191.756-.191s.528.063.75.191c.222.127.397.308.524.542.131.23.196.502.196.816s-.066.587-.196.822c-.131.23-.31.409-.536.536a1.483 1.483 0 0 1-.75.191zm0-.429a.925.925 0 0 0 .833-.5c.091-.167.137-.373.137-.619s-.046-.452-.137-.619c-.087-.167-.204-.292-.351-.375s-.304-.125-.47-.125a.925.925 0 0 0-.833.5c-.091.167-.137.373-.137.619s.046.452.137.619a.939.939 0 0 0 .351.375.942.942 0 0 0 .47.125zm3.518.429a1.46 1.46 0 0 1-.774-.202 1.404 1.404 0 0 1-.512-.554c-.119-.234-.179-.5-.179-.798s.061-.562.185-.792c.123-.234.294-.417.512-.548a1.44 1.44 0 0 1 .774-.202c.242 0 .456.05.643.149s.331.238.435.417v-1.828h.5v4.287h-.452l-.048-.488c-.095.143-.232.272-.411.387s-.403.173-.673.173zm.053-.435a.996.996 0 0 0 .524-.137.943.943 0 0 0 .357-.393c.087-.167.131-.361.131-.583s-.044-.417-.131-.583a.904.904 0 0 0-.357-.387.962.962 0 0 0-.524-.143.981.981 0 0 0-.524.143.956.956 0 0 0-.357.387c-.083.167-.125.361-.125.583s.042.417.125.583a.999.999 0 0 0 .357.393c.155.091.329.137.524.137zm5.088.364c-.27 0-.482-.066-.637-.196s-.232-.367-.232-.708v-1.625h-.512v-.423h.512l.066-.708h.435v.708h.869v.423h-.869v1.625c0 .187.038.314.113.381.075.063.208.095.399.095h.31v.429h-.452zm1.135 0v-2.953h.452l.042.566c.091-.194.23-.349.417-.464s.417-.173.691-.173v.524h-.137c-.175 0-.335.032-.482.095-.147.06-.264.163-.351.31s-.131.349-.131.607v1.488h-.5zm4.747-2.953v2.953h-.452l-.03-.53c-.095.187-.232.333-.411.441s-.381.161-.607.161c-.349 0-.629-.105-.839-.316-.206-.214-.31-.542-.31-.982v-1.727h.5v1.673c0 .615.254.923.762.923a.817.817 0 0 0 .631-.274c.171-.187.256-.45.256-.792v-1.53h.5zm2.18 3.024c-.282 0-.536-.063-.762-.191a1.452 1.452 0 0 1-.53-.542c-.127-.234-.191-.506-.191-.816s.064-.579.191-.81c.131-.234.308-.415.53-.542.226-.131.48-.196.762-.196.349 0 .643.091.881.274.242.183.395.427.458.732h-.512a.648.648 0 0 0-.292-.423.955.955 0 0 0-.542-.155.925.925 0 0 0-.827.5c-.091.167-.137.373-.137.619s.046.452.137.619c.091.167.21.294.357.381a.942.942 0 0 0 .47.125c.206 0 .387-.05.542-.149a.67.67 0 0 0 .292-.435h.512c-.06.298-.21.54-.452.726s-.538.28-.887.28zm2.038-.071v-4.287h.5v2.578l1.209-1.244h.613l-1.31 1.334 1.476 1.619h-.637l-1.351-1.53v1.53h-.5zm3.957.071c-.353 0-.647-.089-.881-.268s-.371-.421-.411-.726h.512c.032.155.113.29.244.405.135.111.316.167.542.167.21 0 .365-.044.464-.131a.424.424 0 0 0 .149-.322c0-.179-.066-.298-.196-.357a2.503 2.503 0 0 0-.542-.161c-.159-.032-.318-.077-.476-.137s-.292-.143-.399-.25a.6.6 0 0 1-.161-.435.79.79 0 0 1 .286-.631c.194-.167.456-.25.786-.25.314 0 .57.079.768.238.202.155.319.377.351.667h-.494a.5.5 0 0 0-.196-.351.67.67 0 0 0-.435-.131c-.179 0-.318.038-.417.113a.362.362 0 0 0-.143.298c0 .119.062.212.185.28.127.067.298.125.512.173.183.04.355.089.518.149a.925.925 0 0 1 .405.256c.107.111.161.274.161.488a.811.811 0 0 1-.304.661c-.202.171-.478.256-.828.256z"/></symbol><symbol id="icon-vector" viewBox="0 0 26 32"><path fill="none" stroke="#d41443" stroke-width="6.4" stroke-linecap="round" stroke-linejoin="round" style="stroke:var(--color2,#d41443)" d="M3.542 3.2 20.367 16 3.542 28.8"/></symbol><symbol id="icon-close" viewBox="0 0 32 32"><path fill="none" stroke="#fff" stroke-width="2" style="stroke:var(--color2,#fff)" d="m2.519 2 26.963 28M2 29.481 30 2.518"/></symbol><symbol id="icon-facebook" viewBox="0 0 32 32"><path fill="#afb1b8" style="fill:var(--color3,#afb1b8)" d="M21.329 5.313h2.921V.225C23.746.156 22.013 0 19.994 0c-4.212 0-7.097 2.649-7.097 7.519V12H8.249v5.688h4.648V32h5.699V17.689h4.46l.708-5.688h-5.169V8.082c.001-1.644.444-2.769 2.735-2.769z"/></symbol><symbol id="icon-instagram" viewBox="0 0 32 32"><path fill="#afb1b8" style="fill:var(--color3,#afb1b8)" d="M31.969 9.408c-.075-1.7-.35-2.869-.744-3.882a7.806 7.806 0 0 0-1.851-2.838A7.867 7.867 0 0 0 26.542.844C25.523.45 24.36.175 22.66.1 20.947.019 20.403 0 16.059 0s-4.888.019-6.595.094c-1.7.075-2.869.35-3.882.744a7.803 7.803 0 0 0-2.838 1.85A7.867 7.867 0 0 0 .9 5.52C.506 6.539.231 7.702.156 9.402c-.081 1.713-.1 2.257-.1 6.601s.019 4.888.094 6.595c.075 1.7.35 2.869.744 3.882a7.895 7.895 0 0 0 1.85 2.838 7.867 7.867 0 0 0 2.832 1.844c1.019.394 2.182.669 3.882.744 1.706.075 2.25.094 6.595.094s4.888-.019 6.595-.094c1.7-.075 2.869-.35 3.882-.744a8.184 8.184 0 0 0 4.682-4.682c.394-1.019.669-2.182.744-3.882.075-1.707.094-2.251.094-6.595s-.006-4.888-.081-6.595zm-2.882 13.065c-.069 1.563-.331 2.407-.55 2.969a5.31 5.31 0 0 1-3.038 3.038c-.563.219-1.413.481-2.969.55-1.688.075-2.194.094-6.464.094s-4.782-.019-6.464-.094c-1.563-.069-2.407-.331-2.969-.55a4.926 4.926 0 0 1-1.838-1.194 4.974 4.974 0 0 1-1.194-1.838c-.219-.563-.481-1.413-.55-2.969-.075-1.688-.094-2.194-.094-6.464s.019-4.782.094-6.464c.069-1.563.331-2.407.55-2.969a4.868 4.868 0 0 1 1.2-1.838A4.974 4.974 0 0 1 6.639 3.55c.563-.219 1.413-.481 2.969-.55 1.688-.075 2.194-.094 6.464-.094 4.276 0 4.782.019 6.464.094 1.563.069 2.407.331 2.969.55a4.914 4.914 0 0 1 1.838 1.194 4.974 4.974 0 0 1 1.194 1.838c.219.563.481 1.413.55 2.969.075 1.688.094 2.194.094 6.464s-.019 4.77-.094 6.458z"/><path fill="#afb1b8" style="fill:var(--color3,#afb1b8)" d="M16.059 7.783c-4.538 0-8.22 3.682-8.22 8.22s3.682 8.22 8.22 8.22c4.539 0 8.22-3.682 8.22-8.22s-3.682-8.22-8.22-8.22zm0 13.552a5.333 5.333 0 0 1 0-10.664 5.333 5.333 0 0 1 0 10.664zM26.524 7.458a1.919 1.919 0 1 1-3.838 0 1.919 1.919 0 0 1 3.838 0z"/></symbol><symbol id="icon-linkedin" viewBox="0 0 32 32"><path fill="#afb1b8" style="fill:var(--color3,#afb1b8)" d="M31.992 32v-.001H32V20.263c0-5.741-1.236-10.164-7.948-10.164-3.227 0-5.392 1.771-6.276 3.449h-.093v-2.913h-6.364v21.364h6.627V21.42c0-2.785.528-5.479 3.977-5.479 3.399 0 3.449 3.179 3.449 5.657v10.401h6.62zM.528 10.636h6.635V32H.528V10.636zM3.843 0C1.722 0 0 1.721 0 3.843s1.721 3.879 3.843 3.879c2.121 0 3.843-1.757 3.843-3.879A3.846 3.846 0 0 0 3.843 0z"/></symbol><symbol id="icon-twitter" viewBox="0 0 32 32"><path fill="#afb1b8" style="fill:var(--color3,#afb1b8)" d="M32 6.078c-1.19.522-2.458.868-3.78 1.036a6.523 6.523 0 0 0 2.886-3.626 13.11 13.11 0 0 1-4.16 1.588A6.574 6.574 0 0 0 22.154 3c-3.632 0-6.556 2.948-6.556 6.562 0 .52.044 1.02.152 1.496-5.454-.266-10.28-2.88-13.522-6.862a6.605 6.605 0 0 0-.898 3.316 6.57 6.57 0 0 0 2.914 5.452 6.479 6.479 0 0 1-2.964-.808v.072c0 3.188 2.274 5.836 5.256 6.446a6.548 6.548 0 0 1-1.72.216 5.8 5.8 0 0 1-1.242-.112c.85 2.598 3.262 4.508 6.13 4.57a13.182 13.182 0 0 1-8.134 2.798c-.538 0-1.054-.024-1.57-.09A18.469 18.469 0 0 0 10.064 29c12.072 0 18.672-10 18.672-18.668 0-.29-.01-.57-.024-.848A13.087 13.087 0 0 0 32 6.078z"/></symbol><symbol id="icon-vector" viewBox="0 0 34 32"><path d="M30.341 3.556v24.889H3.793V3.556h26.548zm0-3.556H3.793C1.707 0 0 1.6 0 3.556v24.889c0 1.956 1.707 3.556 3.793 3.556h26.548c2.086 0 3.793-1.6 3.793-3.556V3.556C34.134 1.6 32.427 0 30.341 0z"/></symbol><symbol id="icon-icon-check" viewBox="0 0 42 32"><path fill="#fff" stroke="#fff" stroke-width=".64" style="fill:var(--color2,#fff);stroke:var(--color2,#fff)" d="m6.263 15.205-.22-.21-3.307 3.132 11.651 11.114L38.864 5.89l-3.285-3.134-21.192 20.197-8.124-7.75z"/></symbol><symbol id="icon-close-black-18dp-2-1" viewBox="0 0 32 32"><path d="m26.667 7.303-1.97-1.97-7.808 7.808-7.808-7.808-1.97 1.97 7.808 7.808-7.808 7.808 1.97 1.97 7.808-7.808 7.808 7.808 1.97-1.97-7.808-7.808 7.808-7.808z"/></symbol><symbol id="icon-email-black" viewBox="0 0 32 32"><path d="M26.667 5.333H5.334A2.663 2.663 0 0 0 2.681 8l-.013 16c0 1.467 1.2 2.667 2.667 2.667h21.333c1.467 0 2.667-1.2 2.667-2.667V8c0-1.467-1.2-2.667-2.667-2.667zM26.133 11l-9.427 5.893a1.346 1.346 0 0 1-1.413 0L5.866 11a1.132 1.132 0 1 1 1.2-1.92l8.933 5.587 8.933-5.587a1.132 1.132 0 1 1 1.2 1.92z"/></symbol><symbol id="icon-check1" viewBox="0 0 32 32"><path fill="#fff" stroke="#fff" stroke-width=".492" style="fill:var(--color2,#fff);stroke:var(--color2,#fff)" d="m4.817 15.389-.169-.162-2.544 2.41 8.962 8.55L29.895 8.225l-2.527-2.411L11.066 21.35l-6.249-5.962z"/></symbol><symbol id="icon-send" viewBox="0 0 32 32"><path fill="#fff" style="fill:var(--color2,#fff)" d="M32 0 0 18l10.227 3.788L26 7 14.002 23.186l.01.004-.012-.004V32l5.735-6.691L27 28l5-28z"/></symbol><symbol id="icon-person-black" viewBox="0 0 32 32"><path d="M16 16c2.947 0 5.333-2.387 5.333-5.333S18.946 5.334 16 5.334c-2.947 0-5.333 2.387-5.333 5.333S13.054 16 16 16zm0 2.667c-3.56 0-10.667 1.787-10.667 5.333v1.333c0 .733.6 1.333 1.333 1.333h18.667c.733 0 1.333-.6 1.333-1.333V24c0-3.547-7.107-5.333-10.667-5.333z"/></symbol><symbol id="icon-phone-black" viewBox="0 0 32 32"><path d="m24.882 19.773-3.268-.373a2.561 2.561 0 0 0-2.11.733L17.137 22.5a19.357 19.357 0 0 1-8.478-8.478l2.38-2.38a2.561 2.561 0 0 0 .733-2.11l-.373-3.242a2.575 2.575 0 0 0-2.56-2.277H6.613c-1.454 0-2.663 1.209-2.573 2.663.682 10.987 9.469 19.761 20.443 20.443 1.454.09 2.663-1.119 2.663-2.573V22.32a2.549 2.549 0 0 0-2.264-2.547z"/></symbol><symbol id="icon-vector1" viewBox="0 0 32 32"><path fill="#fff" stroke="#fff" stroke-width=".492" style="fill:var(--color2,#fff);stroke:var(--color2,#fff)" d="m4.817 15.39-.17-.162-.17.16-2.373 2.25.187.18 8.775 8.369.17-.162L29.894 8.226l-.187-.177-2.341-2.233-.17.162-16.13 15.375-6.25-5.962z"/><symbol id="icon-Vector-1" viewBox="0 0 26 32"><path fill="none" stroke="#d41443" style="stroke:var(--color1,#d41443)" stroke-linejoin="round" stroke-linecap="round" stroke-width="6.4" d="M5.171 3.2 19.341 16 5.171 28.8"/></symbol><symbol id="icon-products-arrow" viewBox="0 0 32 32"><path fill="#D41443" style="fill:var(--color2,#d41443)" d="m19.414 27.414 10-10a2 2 0 0 0 0-2.828l-10-10a2 2 0 1 0-2.828 2.828L23.172 14H4a2 2 0 1 0 0 4h19.172l-6.586 6.586c-.39.39-.586.902-.586 1.414s.195 1.024.586 1.414a2 2 0 0 0 2.828 0z"/></symbol><symbol id="icon-footer-facebook" viewBox="0 0 33 32"><path d="M16.47 32c8.837 0 16-7.163 16-16s-7.163-16-16-16c-8.836 0-16 7.163-16 16s7.164 16 16 16z"/><path fill="#fff" style="fill:var(--color2,#fff)" d="M20.916 15.981h-2.61V25.6h-3.955v-9.62h-1.88V12.6h1.88v-2.187c0-1.565.74-4.014 3.99-4.014l2.93.012v3.281h-2.126c-.348 0-.839.176-.839.922v1.99h2.956l-.346 3.376z"/></symbol><symbol id="icon-footer-github" viewBox="0 0 32 32"><path d="M32 16c0 8.837-7.163 16-16 16S0 24.837 0 16 7.163 0 16 0s16 7.163 16 16z"/><path fill="#fff" style="fill:var(--color2,#fff)" d="M16 6.588c-5.17 0-9.412 4.242-9.412 9.412 0 4.411 3.096 8.418 7.206 9.412v-3.114a2.307 2.307 0 0 1-1.197-.03c-.556-.165-1.008-.535-1.343-1.1-.214-.361-.593-.752-.988-.723l-.097-1.1c.855-.072 1.594.522 2.033 1.26.195.327.42.52.708.605.278.082.577.042.926-.08.087-.698.407-.96.648-1.327-2.451-.366-3.428-1.667-3.816-2.693-.514-1.363-.238-3.066.67-4.142.018-.021.05-.076.038-.114-.417-1.259.09-2.3.11-2.41.48.142.558-.143 2.088.786l.264.159c.11.066.076.028.187.02a7.77 7.77 0 0 1 1.969-.279H16a7.986 7.986 0 0 1 2.058.299l-.056-.014.086.008c-.008 0 .023-.005.075-.036 1.91-1.157 1.842-.779 2.354-.945.019.11.52 1.168.108 2.41-.056.172 1.656 1.74.707 4.256-.388 1.027-1.365 2.328-3.816 2.693v.001c.314.479.692.734.69 1.722v3.887c4.11-.994 7.206-5 7.206-9.412 0-5.17-4.242-9.412-9.412-9.412z"/></symbol><symbol id="icon-footer-telegram" viewBox="0 0 33 32"><path d="M32.235 16c0 8.837-7.163 16-16 16s-16-7.163-16-16 7.163-16 16-16 16 7.163 16 16z"/><path fill="#fff" style="fill:var(--color2,#fff)" d="m13.102 18.375-.317 4.17c.454 0 .651-.183.887-.401l2.13-1.9 4.415 3.017c.81.42 1.38.199 1.599-.695l2.897-12.673h.001c.257-1.118-.433-1.554-1.222-1.28L6.46 14.699c-1.162.42-1.145 1.026-.198 1.3l4.355 1.264 10.114-5.907c.476-.294.91-.131.553.163l-8.181 6.856z"/></symbol><symbol id="icon-customers-reviews-house" viewBox="0 0 35 32"><path fill="#d31342" style="fill:var(--color1,#d31342)" d="M32.64 15.4a1.539 1.539 0 0 0-.128-2.223l-.002-.002L17.737.426a1.849 1.849 0 0 0-1.184-.425c-.466 0-.892.171-1.218.454l.002-.002L.516 13.856a1.53 1.53 0 0 0-.072 2.222l.373.381c.613.635 1.611.709 2.224.168l1.107-.979v14.328a1.6 1.6 0 0 0 1.6 1.589H11.55a1.6 1.6 0 0 0 1.6-1.589V19.951h7.371v10.024c-.013.88.624 1.589 1.515 1.589h6.134a1.6 1.6 0 0 0 1.6-1.589V15.849l.685.592c.376.325 1.168.064 1.765-.587l.421-.453z"/><symbol id="icon-for-contacts-btn" viewBox="0 0 26 32"><path fill="none" stroke="#fff" style="stroke:var(--color1,#fff)" stroke-linejoin="round" stroke-linecap="round" stroke-width="6.4" d="M5.171 3.2 19.341 16 5.171 28.8"/></symbol><symbol id="icon-close-about" viewBox="0 0 32 32"><path d="M32 3.223 28.777 0 16 12.777 3.223 0 0 3.223 12.777 16 0 28.777 3.223 32 16 19.223 28.777 32 32 28.777 19.223 16 32 3.223z"/></symbol><symbol id="icon-close-contacts" viewBox="0 0 32 32"><path d="M32 3.223 28.777 0 16 12.777 3.223 0 0 3.223 12.777 16 0 28.777 3.223 32 16 19.223 28.777 32 32 28.777 19.223 16 32 3.223z"/></symbol><symbol id="icon-email-callback-form" viewBox="0 0 32 32"><path d="M26.667 5.333H5.334A2.662 2.662 0 0 0 2.682 8l-.014 16c0 1.467 1.2 2.667 2.667 2.667h21.333c1.467 0 2.667-1.2 2.667-2.667V8c0-1.467-1.2-2.667-2.667-2.667zm-.534 5.668-9.426 5.892a1.343 1.343 0 0 1-1.421-.004l.006.003L5.866 11A1.133 1.133 0 1 1 7.07 9.083l-.004-.003 8.933 5.586 8.933-5.588a1.132 1.132 0 1 1 1.204 1.916l-.005.003z"/></symbol><symbol id="icon-phone-callback-form" viewBox="0 0 32 32"><path d="m24.882 19.774-3.268-.373a2.552 2.552 0 0 0-2.11.732l-2.368 2.368c-3.669-1.894-6.585-4.81-8.427-8.372l-.051-.108 2.382-2.377a2.552 2.552 0 0 0 .731-2.122l.001.012-.373-3.243a2.578 2.578 0 0 0-2.557-2.276H6.613c-1.454 0-2.663 1.209-2.574 2.661.683 10.987 9.47 19.762 20.444 20.444 1.452.089 2.663-1.12 2.663-2.574v-2.238a2.549 2.549 0 0 0-2.253-2.532l-.012-.001z"/></symbol><symbol id="icon-person-callback-form" viewBox="0 0 32 32"><path d="M16 16a5.333 5.333 0 1 0 0-10.666A5.333 5.333 0 1 0 16 16zm0 2.667c-3.561 0-10.667 1.787-10.667 5.333v1.333c0 .732.599 1.333 1.333 1.333h18.667c.732 0 1.333-.601 1.333-1.333V24c0-3.547-7.108-5.333-10.667-5.333z"/></symbol><symbol id="icon-check" viewBox="0 0 42 32"><path stroke-width=".64" d="m6.262 15.206-.221-.211-.221.208-3.085 2.925.243.234 11.408 10.88.221-.211L38.863 5.892l-.243-.23-3.043-2.902-.221.211-20.97 19.987-8.125-7.75z"/></symbol><symbol id="location" viewBox="0 0 20 20"><path d="M10 20S3 10.87 3 7a7 7 0 1 1 14 0c0 3.87-7 13-7 13zm0-11a2 2 0 1 0 0-4 2 2 0 1 0 0 4z"/></symbol></symbol></symbol></defs></svg>