<svg aria-hidden="true" style="position: absolute; overflow: hidden;" version="1.1" xmlns="http://www.w3.org/2000/svg" xmlns:xlink="http://www.w3.org/1999/xlink">
<defs>
<symbol id="icon-menu" viewBox="0 0 46 32">
<path fill="none" stroke="#d41443" stroke-width="2.2857" stroke-miterlimit="4" stroke-linecap="butt" stroke-linejoin="miter" style="stroke: var(--color1, #d41443)" d="M0 2.286h45.714"></path>
<path fill="none" stroke="#d41443" stroke-width="2.2857" stroke-miterlimit="4" stroke-linecap="butt" stroke-linejoin="miter" style="stroke: var(--color1, #d41443)" d="M0 16h45.714"></path>
<path fill="none" stroke="#d41443" stroke-width="2.2857" stroke-miterlimit="4" stroke-linecap="butt" stroke-linejoin="miter" style="stroke: var(--color1, #d41443)" d="M0 29.714h45.714"></path>
</symbol>
<symbol id="icon-header_16" viewBox="0 0 31 32">
<path fill="#fff" style="fill: var(--color2, #fff)" d="M19.636 5.818c0 3.213 2.605 5.818 5.818 5.818s5.818-2.605 5.818-5.818c0-3.213-2.605-5.818-5.818-5.818s-5.818 2.605-5.818 5.818z"></path>
<path fill="#d41443" style="fill: var(--color1, #d41443)" d="M8.885 20.602c0 0.149-0.414 0.271-1.242 0.367-0.828 0.081-1.656 0.122-2.484 0.122s-1.364-0.034-1.609-0.102c-0.231-0.081-0.346-0.21-0.346-0.387v-8.797h-2.077c-0.231 0-0.346-0.495-0.346-1.487s0.115-1.887 0.346-2.688c0.068-0.258 0.787-0.495 2.159-0.713s2.423-0.326 3.156-0.326c0.733 0 1.222 0.027 1.466 0.081s0.428 0.122 0.55 0.204c0.122 0.068 0.217 0.149 0.285 0.244 0.095 0.149 0.143 0.292 0.143 0.428v13.053zM16.809 12.192c0.122-0.109 0.448-0.251 0.977-0.428s1.127-0.265 1.792-0.265c0.679 0 1.249 0.102 1.711 0.305 0.475 0.19 0.842 0.434 1.1 0.733 0.272 0.299 0.482 0.672 0.631 1.12 0.244 0.733 0.367 1.48 0.367 2.24s-0.034 1.337-0.102 1.731c-0.054 0.38-0.204 0.808-0.448 1.283-0.231 0.475-0.55 0.876-0.957 1.201-0.394 0.326-0.964 0.604-1.711 0.835-0.733 0.217-1.595 0.326-2.586 0.326-2.131 0-3.74-0.584-4.826-1.751-1.086-1.181-1.629-3.082-1.629-5.702 0-2.634 0.509-4.527 1.527-5.681 1.018-1.168 2.566-1.751 4.643-1.751 1.425 0 2.661 0.109 3.706 0.326 1.059 0.204 1.588 0.448 1.588 0.733 0 0.353-0.136 0.971-0.407 1.853-0.258 0.882-0.495 1.324-0.713 1.324-0.068 0-0.271-0.034-0.611-0.102-0.923-0.19-1.765-0.285-2.525-0.285s-1.249 0.19-1.466 0.57c-0.217 0.367-0.326 0.91-0.326 1.629 0.054-0.068 0.143-0.149 0.265-0.244zM17.257 14.025c-0.394 0-0.591 0.733-0.591 2.199 0 1.453 0.197 2.179 0.591 2.179 0.421 0 0.631-0.726 0.631-2.179 0-1.466-0.21-2.199-0.631-2.199z"></path>
<path fill="#fff" style="fill: var(--color2, #fff)" d="M11.217 30.615c-0.275 0-0.524-0.062-0.745-0.186-0.217-0.128-0.39-0.305-0.518-0.529-0.124-0.229-0.186-0.495-0.186-0.797s0.062-0.566 0.186-0.791c0.128-0.229 0.301-0.405 0.518-0.529 0.221-0.128 0.469-0.192 0.745-0.192 0.341 0 0.628 0.089 0.861 0.268 0.237 0.178 0.386 0.417 0.448 0.716h-0.5c-0.039-0.178-0.134-0.316-0.285-0.413-0.151-0.101-0.328-0.151-0.529-0.151-0.163 0-0.316 0.041-0.46 0.122s-0.26 0.204-0.349 0.367c-0.089 0.163-0.134 0.365-0.134 0.605s0.045 0.442 0.134 0.605c0.089 0.163 0.206 0.287 0.349 0.372 0.143 0.081 0.297 0.122 0.46 0.122 0.202 0 0.378-0.049 0.529-0.145 0.151-0.101 0.246-0.242 0.285-0.425h0.5c-0.058 0.291-0.206 0.527-0.442 0.71s-0.526 0.273-0.867 0.273zM14.168 30.615c-0.241 0-0.44-0.041-0.599-0.122s-0.277-0.19-0.355-0.326c-0.078-0.136-0.116-0.283-0.116-0.442 0-0.295 0.112-0.522 0.337-0.681s0.531-0.239 0.919-0.239h0.78v-0.035c0-0.252-0.066-0.442-0.198-0.57-0.132-0.132-0.308-0.198-0.529-0.198-0.19 0-0.355 0.049-0.495 0.145-0.136 0.093-0.221 0.231-0.256 0.413h-0.5c0.019-0.209 0.089-0.386 0.209-0.529 0.124-0.143 0.277-0.252 0.46-0.326 0.182-0.078 0.376-0.116 0.582-0.116 0.403 0 0.706 0.109 0.908 0.326 0.206 0.213 0.308 0.498 0.308 0.855v1.775h-0.436l-0.029-0.518c-0.081 0.163-0.202 0.303-0.361 0.419-0.155 0.113-0.365 0.169-0.628 0.169zM14.244 30.202c0.186 0 0.345-0.049 0.477-0.145 0.136-0.097 0.239-0.223 0.308-0.378s0.105-0.318 0.105-0.489v-0.006h-0.739c-0.287 0-0.491 0.050-0.611 0.151-0.116 0.097-0.175 0.219-0.175 0.367 0 0.151 0.054 0.273 0.163 0.367 0.112 0.089 0.27 0.134 0.471 0.134zM16.513 30.545v-2.473h-0.436v-0.413h0.436v-0.5c0-0.279 0.070-0.483 0.209-0.611s0.343-0.192 0.611-0.192h0.291v0.419h-0.215c-0.147 0-0.252 0.031-0.314 0.093-0.062 0.058-0.093 0.159-0.093 0.303v0.489h0.71v0.413h-0.71v2.473h-0.489zM19.477 30.615c-0.275 0-0.52-0.062-0.733-0.186-0.213-0.128-0.382-0.305-0.506-0.529-0.12-0.225-0.18-0.491-0.18-0.797 0-0.303 0.060-0.566 0.18-0.791 0.12-0.229 0.287-0.405 0.5-0.529 0.217-0.128 0.467-0.192 0.751-0.192 0.279 0 0.52 0.064 0.721 0.192 0.206 0.124 0.363 0.289 0.471 0.495s0.163 0.427 0.163 0.663c0 0.043-0.002 0.085-0.006 0.128 0 0.043 0 0.091 0 0.145h-2.298c0.012 0.221 0.062 0.405 0.151 0.553 0.093 0.143 0.207 0.252 0.343 0.326 0.14 0.074 0.287 0.111 0.442 0.111 0.202 0 0.37-0.047 0.506-0.14s0.235-0.219 0.297-0.378h0.483c-0.078 0.268-0.227 0.491-0.448 0.669-0.217 0.175-0.497 0.262-0.838 0.262zM19.477 28.003c-0.233 0-0.44 0.072-0.623 0.215-0.178 0.14-0.281 0.345-0.308 0.617h1.815c-0.012-0.26-0.101-0.463-0.268-0.611s-0.372-0.221-0.617-0.221zM22.598 30.615c-0.345 0-0.632-0.087-0.861-0.262s-0.363-0.411-0.401-0.71h0.5c0.031 0.151 0.111 0.283 0.239 0.396 0.132 0.109 0.308 0.163 0.529 0.163 0.206 0 0.357-0.043 0.454-0.128 0.097-0.089 0.145-0.194 0.145-0.314 0-0.175-0.064-0.291-0.192-0.349-0.124-0.058-0.301-0.111-0.529-0.157-0.155-0.031-0.31-0.076-0.465-0.134s-0.285-0.14-0.39-0.244c-0.105-0.109-0.157-0.25-0.157-0.425 0-0.252 0.093-0.458 0.279-0.617 0.19-0.163 0.446-0.244 0.768-0.244 0.306 0 0.557 0.078 0.751 0.233 0.198 0.151 0.312 0.369 0.343 0.652h-0.483c-0.019-0.147-0.083-0.262-0.192-0.343-0.105-0.085-0.246-0.128-0.425-0.128-0.175 0-0.31 0.037-0.407 0.111-0.093 0.074-0.14 0.171-0.14 0.291 0 0.116 0.060 0.207 0.18 0.273 0.124 0.066 0.291 0.122 0.5 0.169 0.178 0.039 0.347 0.087 0.506 0.145 0.163 0.054 0.295 0.138 0.396 0.25 0.105 0.109 0.157 0.268 0.157 0.477 0.004 0.26-0.095 0.475-0.297 0.646-0.198 0.167-0.467 0.25-0.809 0.25z"></path>
</symbol>
<symbol id="icon-arrow-right" viewBox="0 0 24 24">
<path d="M11.293 5.707l5.293 5.293h-11.586c-0.552 0-1 0.448-1 1s0.448 1 1 1h11.586l-5.293 5.293c-0.391 0.391-0.391 1.024 0 1.414s1.024 0.391 1.414 0l7-7c0.092-0.092 0.166-0.202 0.217-0.324 0.101-0.245 0.101-0.521 0-0.766-0.049-0.118-0.121-0.228-0.217-0.324l-7-7c-0.391-0.391-1.024-0.391-1.414 0s-0.391 1.024 0 1.414z"></path>
</symbol>
<symbol id="icon-header_16_768" viewBox="0 0 31 32">
<path fill="#fff" style="fill: var(--color2, #fff)" d="M19.636 5.818c0 3.213 2.605 5.818 5.818 5.818s5.818-2.605 5.818-5.818c0-3.213-2.605-5.818-5.818-5.818s-5.818 2.605-5.818 5.818z"></path>
<path fill="#d41443" style="fill: var(--color1, #d41443)" d="M8.885 20.602c0 0.149-0.414 0.271-1.242 0.367-0.828 0.081-1.656 0.122-2.484 0.122s-1.364-0.034-1.609-0.102c-0.231-0.081-0.346-0.21-0.346-0.387v-8.797h-2.077c-0.231 0-0.346-0.495-0.346-1.487s0.115-1.887 0.346-2.688c0.068-0.258 0.787-0.495 2.159-0.713s2.423-0.326 3.156-0.326c0.733 0 1.222 0.027 1.466 0.081s0.428 0.122 0.55 0.204c0.122 0.068 0.217 0.149 0.285 0.244 0.095 0.149 0.143 0.292 0.143 0.428v13.053zM16.809 12.192c0.122-0.109 0.448-0.251 0.977-0.428s1.127-0.265 1.792-0.265c0.679 0 1.249 0.102 1.711 0.305 0.475 0.19 0.842 0.434 1.1 0.733 0.272 0.299 0.482 0.672 0.631 1.12 0.244 0.733 0.367 1.48 0.367 2.24s-0.034 1.337-0.102 1.731c-0.054 0.38-0.204 0.808-0.448 1.283-0.231 0.475-0.55 0.876-0.957 1.201-0.394 0.326-0.964 0.604-1.711 0.835-0.733 0.217-1.595 0.326-2.586 0.326-2.131 0-3.74-0.584-4.826-1.751-1.086-1.181-1.629-3.082-1.629-5.702 0-2.634 0.509-4.527 1.527-5.681 1.018-1.168 2.566-1.751 4.643-1.751 1.425 0 2.661 0.109 3.706 0.326 1.059 0.204 1.588 0.448 1.588 0.733 0 0.353-0.136 0.971-0.407 1.853-0.258 0.882-0.495 1.324-0.713 1.324-0.068 0-0.271-0.034-0.611-0.102-0.923-0.19-1.765-0.285-2.525-0.285s-1.249 0.19-1.466 0.57c-0.217 0.367-0.326 0.91-0.326 1.629 0.054-0.068 0.143-0.149 0.265-0.244zM17.257 14.025c-0.394 0-0.591 0.733-0.591 2.199 0 1.453 0.197 2.179 0.591 2.179 0.421 0 0.631-0.726 0.631-2.179 0-1.466-0.21-2.199-0.631-2.199z"></path>
<path fill="#fff" style="fill: var(--color2, #fff)" d="M11.217 30.615c-0.275 0-0.524-0.062-0.745-0.186-0.217-0.128-0.39-0.305-0.518-0.529-0.124-0.229-0.186-0.495-0.186-0.797s0.062-0.566 0.186-0.791c0.128-0.229 0.301-0.405 0.518-0.529 0.221-0.128 0.469-0.192 0.745-0.192 0.341 0 0.628 0.089 0.861 0.268 0.237 0.178 0.386 0.417 0.448 0.716h-0.5c-0.039-0.178-0.134-0.316-0.285-0.413-0.151-0.101-0.328-0.151-0.529-0.151-0.163 0-0.316 0.041-0.46 0.122s-0.26 0.204-0.349 0.367c-0.089 0.163-0.134 0.365-0.134 0.605s0.045 0.442 0.134 0.605c0.089 0.163 0.206 0.287 0.349 0.372 0.143 0.081 0.297 0.122 0.46 0.122 0.202 0 0.378-0.049 0.529-0.145 0.151-0.101 0.246-0.242 0.285-0.425h0.5c-0.058 0.291-0.206 0.527-0.442 0.71s-0.526 0.273-0.867 0.273zM14.168 30.615c-0.241 0-0.44-0.041-0.599-0.122s-0.277-0.19-0.355-0.326c-0.078-0.136-0.116-0.283-0.116-0.442 0-0.295 0.112-0.522 0.337-0.681s0.531-0.239 0.919-0.239h0.78v-0.035c0-0.252-0.066-0.442-0.198-0.57-0.132-0.132-0.308-0.198-0.529-0.198-0.19 0-0.355 0.049-0.495 0.145-0.136 0.093-0.221 0.231-0.256 0.413h-0.5c0.019-0.209 0.089-0.386 0.209-0.529 0.124-0.143 0.277-0.252 0.46-0.326 0.182-0.078 0.376-0.116 0.582-0.116 0.403 0 0.706 0.109 0.908 0.326 0.206 0.213 0.308 0.498 0.308 0.855v1.775h-0.436l-0.029-0.518c-0.081 0.163-0.202 0.303-0.361 0.419-0.155 0.113-0.365 0.169-0.628 0.169zM14.244 30.202c0.186 0 0.345-0.049 0.477-0.145 0.136-0.097 0.239-0.223 0.308-0.378s0.105-0.318 0.105-0.489v-0.006h-0.739c-0.287 0-0.491 0.050-0.611 0.151-0.116 0.097-0.175 0.219-0.175 0.367 0 0.151 0.054 0.273 0.163 0.367 0.112 0.089 0.27 0.134 0.471 0.134zM16.513 30.545v-2.473h-0.436v-0.413h0.436v-0.5c0-0.279 0.070-0.483 0.209-0.611s0.343-0.192 0.611-0.192h0.291v0.419h-0.215c-0.147 0-0.252 0.031-0.314 0.093-0.062 0.058-0.093 0.159-0.093 0.303v0.489h0.71v0.413h-0.71v2.473h-0.489zM19.477 30.615c-0.275 0-0.52-0.062-0.733-0.186-0.213-0.128-0.382-0.305-0.506-0.529-0.12-0.225-0.18-0.491-0.18-0.797 0-0.303 0.060-0.566 0.18-0.791 0.12-0.229 0.287-0.405 0.5-0.529 0.217-0.128 0.467-0.192 0.751-0.192 0.279 0 0.52 0.064 0.721 0.192 0.206 0.124 0.363 0.289 0.471 0.495s0.163 0.427 0.163 0.663c0 0.043-0.002 0.085-0.006 0.128 0 0.043 0 0.091 0 0.145h-2.298c0.012 0.221 0.062 0.405 0.151 0.553 0.093 0.143 0.207 0.252 0.343 0.326 0.14 0.074 0.287 0.111 0.442 0.111 0.202 0 0.37-0.047 0.506-0.14s0.235-0.219 0.297-0.378h0.483c-0.078 0.268-0.227 0.491-0.448 0.669-0.217 0.175-0.497 0.262-0.838 0.262zM19.477 28.003c-0.233 0-0.44 0.072-0.623 0.215-0.178 0.14-0.281 0.345-0.308 0.617h1.815c-0.012-0.26-0.101-0.463-0.268-0.611s-0.372-0.221-0.617-0.221zM22.598 30.615c-0.345 0-0.632-0.087-0.861-0.262s-0.363-0.411-0.401-0.71h0.5c0.031 0.151 0.111 0.283 0.239 0.396 0.132 0.109 0.308 0.163 0.529 0.163 0.206 0 0.357-0.043 0.454-0.128 0.097-0.089 0.145-0.194 0.145-0.314 0-0.175-0.064-0.291-0.192-0.349-0.124-0.058-0.301-0.111-0.529-0.157-0.155-0.031-0.31-0.076-0.465-0.134s-0.285-0.14-0.39-0.244c-0.105-0.109-0.157-0.25-0.157-0.425 0-0.252 0.093-0.458 0.279-0.617 0.19-0.163 0.446-0.244 0.768-0.244 0.306 0 0.557 0.078 0.751 0.233 0.198 0.151 0.312 0.369 0.343 0.652h-0.483c-0.019-0.147-0.083-0.262-0.192-0.343-0.105-0.085-0.246-0.128-0.425-0.128-0.175 0-0.31 0.037-0.407 0.111-0.093 0.074-0.14 0.171-0.14 0.291 0 0.116 0.060 0.207 0.18 0.273 0.124 0.066 0.291 0.122 0.5 0.169 0.178 0.039 0.347 0.087 0.506 0.145 0.163 0.054 0.295 0.138 0.396 0.25 0.105 0.109 0.157 0.268 0.157 0.477 0.004 0.26-0.095 0.475-0.297 0.646-0.198 0.167-0.467 0.25-0.809 0.25z"></path>
</symbol>
<symbol id="icon-header_23" viewBox="0 0 38 32">
<path fill="#fff" style="fill: var(--color2, #fff)" d="M26.047 5.954c0 3.288 2.665 5.954 5.953 5.954s5.953-2.665 5.953-5.954c0-3.288-2.665-5.954-5.953-5.954s-5.953 2.665-5.953 5.954z"></path>
<path fill="#d41443" style="fill: var(--color1, #d41443)" d="M7.732 11.44c-0.389 0-0.729-0.458-1.021-1.375-0.278-0.917-0.417-1.799-0.417-2.646 0-0.194 0.215-0.41 0.646-0.646 0.431-0.25 1.084-0.472 1.959-0.667s1.827-0.292 2.855-0.292c3.987 0 5.98 1.396 5.98 4.188 0 0.778-0.167 1.507-0.5 2.188s-0.702 1.229-1.104 1.646c-0.403 0.403-0.875 0.778-1.417 1.125-0.625 0.389-1.222 0.695-1.792 0.917h4.167c0.083 0 0.174 0.042 0.271 0.125 0.097 0.069 0.201 0.292 0.313 0.667 0.111 0.361 0.167 0.82 0.167 1.375 0 0.542-0.035 1-0.104 1.375-0.070 0.361-0.153 0.625-0.25 0.792-0.208 0.375-0.396 0.577-0.563 0.604l-0.104 0.021h-9.127c-0.875 0-1.313-1.368-1.313-4.105 0-0.306 0.903-1.146 2.709-2.521 0.681-0.5 1.306-1.049 1.875-1.646s0.854-1.084 0.854-1.459c0-0.417-0.313-0.625-0.938-0.625s-1.285 0.16-1.98 0.479c-0.681 0.319-1.070 0.479-1.167 0.479zM31.18 9.71c0 1.403-0.556 2.452-1.667 3.146 0.153 0.069 0.347 0.236 0.583 0.5 0.25 0.264 0.458 0.528 0.625 0.792 0.431 0.681 0.646 1.486 0.646 2.417 0 1.528-0.549 2.653-1.646 3.376s-2.605 1.084-4.522 1.084c-0.945 0-1.841-0.076-2.688-0.229-0.834-0.167-1.473-0.347-1.917-0.542-0.445-0.208-0.667-0.396-0.667-0.563 0-0.764 0.083-1.438 0.25-2.021s0.354-0.993 0.563-1.229c0.208-0.25 0.41-0.375 0.604-0.375 0.056 0 0.424 0.125 1.104 0.375s1.348 0.375 2 0.375c0.667 0 1-0.208 1-0.625 0-0.57-0.702-0.875-2.105-0.917-0.556-0.014-0.861-0.028-0.917-0.042-0.292-0.097-0.438-0.708-0.438-1.834s0.146-1.743 0.438-1.854c0.056-0.028 0.361-0.042 0.917-0.042 1.403-0.028 2.105-0.313 2.105-0.854 0-0.417-0.306-0.625-0.917-0.625-0.597 0-1.264 0.146-2 0.438s-1.139 0.438-1.209 0.438c-0.319 0-0.611-0.465-0.875-1.396s-0.396-1.591-0.396-1.98c0-0.361 0.403-0.729 1.209-1.104 0.889-0.403 2.195-0.604 3.917-0.604 4.001 0 6.001 1.299 6.001 3.897z"></path>
<path fill="#fff" style="fill: var(--color2, #fff)" d="M1.275 30.512v-2.53h-0.447v-0.423h0.447v-0.512c0-0.286 0.071-0.494 0.214-0.625s0.351-0.196 0.625-0.196h0.298v0.429h-0.22c-0.151 0-0.258 0.032-0.321 0.095-0.063 0.060-0.095 0.163-0.095 0.31v0.5h0.726v0.423h-0.726v2.53h-0.5zM4.326 30.583c-0.278 0-0.528-0.063-0.75-0.191s-0.399-0.306-0.53-0.536c-0.127-0.234-0.191-0.508-0.191-0.822s0.066-0.585 0.196-0.816c0.131-0.234 0.308-0.415 0.53-0.542 0.226-0.127 0.478-0.191 0.756-0.191s0.528 0.063 0.75 0.191c0.222 0.127 0.397 0.308 0.524 0.542 0.131 0.23 0.196 0.502 0.196 0.816s-0.066 0.587-0.196 0.822c-0.131 0.23-0.31 0.409-0.536 0.536-0.222 0.127-0.472 0.191-0.75 0.191zM4.326 30.154c0.171 0 0.329-0.042 0.476-0.125s0.266-0.208 0.357-0.375c0.091-0.167 0.137-0.373 0.137-0.619s-0.046-0.452-0.137-0.619c-0.087-0.167-0.204-0.292-0.351-0.375s-0.304-0.125-0.47-0.125c-0.171 0-0.329 0.042-0.476 0.125s-0.266 0.208-0.357 0.375c-0.091 0.167-0.137 0.373-0.137 0.619s0.046 0.452 0.137 0.619c0.091 0.167 0.208 0.292 0.351 0.375 0.147 0.083 0.304 0.125 0.47 0.125zM7.849 30.583c-0.278 0-0.528-0.063-0.75-0.191s-0.399-0.306-0.53-0.536c-0.127-0.234-0.191-0.508-0.191-0.822s0.066-0.585 0.196-0.816c0.131-0.234 0.308-0.415 0.53-0.542 0.226-0.127 0.478-0.191 0.756-0.191s0.528 0.063 0.75 0.191c0.222 0.127 0.397 0.308 0.524 0.542 0.131 0.23 0.196 0.502 0.196 0.816s-0.066 0.587-0.196 0.822c-0.131 0.23-0.31 0.409-0.536 0.536-0.222 0.127-0.472 0.191-0.75 0.191zM7.849 30.154c0.171 0 0.329-0.042 0.476-0.125s0.266-0.208 0.357-0.375c0.091-0.167 0.137-0.373 0.137-0.619s-0.046-0.452-0.137-0.619c-0.087-0.167-0.204-0.292-0.351-0.375s-0.304-0.125-0.47-0.125c-0.171 0-0.329 0.042-0.476 0.125s-0.266 0.208-0.357 0.375c-0.091 0.167-0.137 0.373-0.137 0.619s0.046 0.452 0.137 0.619c0.091 0.167 0.208 0.292 0.351 0.375 0.147 0.083 0.304 0.125 0.47 0.125zM11.367 30.583c-0.294 0-0.552-0.067-0.774-0.202-0.218-0.135-0.389-0.319-0.512-0.554-0.119-0.234-0.179-0.5-0.179-0.798s0.061-0.562 0.185-0.792c0.123-0.234 0.294-0.417 0.512-0.548 0.218-0.135 0.476-0.202 0.774-0.202 0.242 0 0.456 0.050 0.643 0.149s0.331 0.238 0.435 0.417v-1.828h0.5v4.287h-0.452l-0.048-0.488c-0.095 0.143-0.232 0.272-0.411 0.387s-0.403 0.173-0.673 0.173zM11.42 30.148c0.198 0 0.373-0.046 0.524-0.137 0.155-0.095 0.274-0.226 0.357-0.393 0.087-0.167 0.131-0.361 0.131-0.583s-0.044-0.417-0.131-0.583c-0.083-0.167-0.202-0.296-0.357-0.387-0.151-0.095-0.325-0.143-0.524-0.143-0.195 0-0.369 0.048-0.524 0.143-0.151 0.091-0.27 0.22-0.357 0.387-0.083 0.167-0.125 0.361-0.125 0.583s0.042 0.417 0.125 0.583c0.087 0.167 0.206 0.298 0.357 0.393 0.155 0.091 0.329 0.137 0.524 0.137zM16.508 30.512c-0.27 0-0.482-0.066-0.637-0.196s-0.232-0.367-0.232-0.708v-1.625h-0.512v-0.423h0.512l0.066-0.708h0.435v0.708h0.869v0.423h-0.869v1.625c0 0.187 0.038 0.314 0.113 0.381 0.075 0.063 0.208 0.095 0.399 0.095h0.31v0.429h-0.452zM17.643 30.512v-2.953h0.452l0.042 0.566c0.091-0.194 0.23-0.349 0.417-0.464s0.417-0.173 0.691-0.173v0.524h-0.137c-0.175 0-0.335 0.032-0.482 0.095-0.147 0.060-0.264 0.163-0.351 0.31s-0.131 0.349-0.131 0.607v1.488h-0.5zM22.39 27.559v2.953h-0.452l-0.030-0.53c-0.095 0.187-0.232 0.333-0.411 0.441s-0.381 0.161-0.607 0.161c-0.349 0-0.629-0.105-0.839-0.316-0.206-0.214-0.31-0.542-0.31-0.982v-1.727h0.5v1.673c0 0.615 0.254 0.923 0.762 0.923 0.254 0 0.464-0.091 0.631-0.274 0.171-0.187 0.256-0.45 0.256-0.792v-1.53h0.5zM24.57 30.583c-0.282 0-0.536-0.063-0.762-0.191-0.222-0.131-0.399-0.312-0.53-0.542-0.127-0.234-0.191-0.506-0.191-0.816s0.064-0.579 0.191-0.81c0.131-0.234 0.308-0.415 0.53-0.542 0.226-0.131 0.48-0.196 0.762-0.196 0.349 0 0.643 0.091 0.881 0.274 0.242 0.183 0.395 0.427 0.458 0.732h-0.512c-0.040-0.183-0.137-0.323-0.292-0.423-0.155-0.103-0.335-0.155-0.542-0.155-0.167 0-0.323 0.042-0.47 0.125s-0.266 0.208-0.357 0.375c-0.091 0.167-0.137 0.373-0.137 0.619s0.046 0.452 0.137 0.619c0.091 0.167 0.21 0.294 0.357 0.381 0.147 0.083 0.304 0.125 0.47 0.125 0.206 0 0.387-0.050 0.542-0.149 0.155-0.103 0.252-0.248 0.292-0.435h0.512c-0.060 0.298-0.21 0.54-0.452 0.726s-0.538 0.28-0.887 0.28zM26.608 30.512v-4.287h0.5v2.578l1.209-1.244h0.613l-1.31 1.334 1.476 1.619h-0.637l-1.351-1.53v1.53h-0.5zM30.565 30.583c-0.353 0-0.647-0.089-0.881-0.268s-0.371-0.421-0.411-0.726h0.512c0.032 0.155 0.113 0.29 0.244 0.405 0.135 0.111 0.316 0.167 0.542 0.167 0.21 0 0.365-0.044 0.464-0.131 0.099-0.091 0.149-0.198 0.149-0.322 0-0.179-0.066-0.298-0.196-0.357-0.127-0.060-0.308-0.113-0.542-0.161-0.159-0.032-0.318-0.077-0.476-0.137s-0.292-0.143-0.399-0.25c-0.107-0.111-0.161-0.256-0.161-0.435 0-0.258 0.095-0.468 0.286-0.631 0.194-0.167 0.456-0.25 0.786-0.25 0.314 0 0.57 0.079 0.768 0.238 0.202 0.155 0.319 0.377 0.351 0.667h-0.494c-0.020-0.151-0.085-0.268-0.196-0.351-0.107-0.087-0.252-0.131-0.435-0.131-0.179 0-0.318 0.038-0.417 0.113-0.095 0.075-0.143 0.175-0.143 0.298 0 0.119 0.062 0.212 0.185 0.28 0.127 0.067 0.298 0.125 0.512 0.173 0.183 0.040 0.355 0.089 0.518 0.149 0.167 0.056 0.302 0.141 0.405 0.256 0.107 0.111 0.161 0.274 0.161 0.488 0.004 0.266-0.097 0.486-0.304 0.661-0.202 0.171-0.478 0.256-0.828 0.256z"></path>
</symbol>
<symbol id="icon-header_23_768" viewBox="0 0 38 32">
<path fill="#fff" style="fill: var(--color2, #fff)" d="M26.047 5.954c0 3.288 2.665 5.954 5.953 5.954s5.953-2.665 5.953-5.954c0-3.288-2.665-5.954-5.953-5.954s-5.953 2.665-5.953 5.954z"></path>
<path fill="#d41443" style="fill: var(--color1, #d41443)" d="M7.732 11.44c-0.389 0-0.729-0.458-1.021-1.375-0.278-0.917-0.417-1.799-0.417-2.646 0-0.194 0.215-0.41 0.646-0.646 0.431-0.25 1.084-0.472 1.959-0.667s1.827-0.292 2.855-0.292c3.987 0 5.98 1.396 5.98 4.188 0 0.778-0.167 1.507-0.5 2.188s-0.702 1.229-1.104 1.646c-0.403 0.403-0.875 0.778-1.417 1.125-0.625 0.389-1.222 0.695-1.792 0.917h4.167c0.083 0 0.174 0.042 0.271 0.125 0.097 0.069 0.201 0.292 0.313 0.667 0.111 0.361 0.167 0.82 0.167 1.375 0 0.542-0.035 1-0.104 1.375-0.070 0.361-0.153 0.625-0.25 0.792-0.208 0.375-0.396 0.577-0.563 0.604l-0.104 0.021h-9.127c-0.875 0-1.313-1.368-1.313-4.105 0-0.306 0.903-1.146 2.709-2.521 0.681-0.5 1.306-1.049 1.875-1.646s0.854-1.084 0.854-1.459c0-0.417-0.313-0.625-0.938-0.625s-1.285 0.16-1.98 0.479c-0.681 0.319-1.070 0.479-1.167 0.479zM31.18 9.71c0 1.403-0.556 2.452-1.667 3.146 0.153 0.069 0.347 0.236 0.583 0.5 0.25 0.264 0.458 0.528 0.625 0.792 0.431 0.681 0.646 1.486 0.646 2.417 0 1.528-0.549 2.653-1.646 3.376s-2.605 1.084-4.522 1.084c-0.945 0-1.841-0.076-2.688-0.229-0.834-0.167-1.473-0.347-1.917-0.542-0.445-0.208-0.667-0.396-0.667-0.563 0-0.764 0.083-1.438 0.25-2.021s0.354-0.993 0.563-1.229c0.208-0.25 0.41-0.375 0.604-0.375 0.056 0 0.424 0.125 1.104 0.375s1.348 0.375 2 0.375c0.667 0 1-0.208 1-0.625 0-0.57-0.702-0.875-2.105-0.917-0.556-0.014-0.861-0.028-0.917-0.042-0.292-0.097-0.438-0.708-0.438-1.834s0.146-1.743 0.438-1.854c0.056-0.028 0.361-0.042 0.917-0.042 1.403-0.028 2.105-0.313 2.105-0.854 0-0.417-0.306-0.625-0.917-0.625-0.597 0-1.264 0.146-2 0.438s-1.139 0.438-1.209 0.438c-0.319 0-0.611-0.465-0.875-1.396s-0.396-1.591-0.396-1.98c0-0.361 0.403-0.729 1.209-1.104 0.889-0.403 2.195-0.604 3.917-0.604 4.001 0 6.001 1.299 6.001 3.897z"></path>
<path fill="#fff" style="fill: var(--color2, #fff)" d="M1.275 30.512v-2.53h-0.447v-0.423h0.447v-0.512c0-0.286 0.071-0.494 0.214-0.625s0.351-0.196 0.625-0.196h0.298v0.429h-0.22c-0.151 0-0.258 0.032-0.321 0.095-0.063 0.060-0.095 0.163-0.095 0.31v0.5h0.726v0.423h-0.726v2.53h-0.5zM4.326 30.583c-0.278 0-0.528-0.063-0.75-0.191s-0.399-0.306-0.53-0.536c-0.127-0.234-0.191-0.508-0.191-0.822s0.066-0.585 0.196-0.816c0.131-0.234 0.308-0.415 0.53-0.542 0.226-0.127 0.478-0.191 0.756-0.191s0.528 0.063 0.75 0.191c0.222 0.127 0.397 0.308 0.524 0.542 0.131 0.23 0.196 0.502 0.196 0.816s-0.066 0.587-0.196 0.822c-0.131 0.23-0.31 0.409-0.536 0.536-0.222 0.127-0.472 0.191-0.75 0.191zM4.326 30.154c0.171 0 0.329-0.042 0.476-0.125s0.266-0.208 0.357-0.375c0.091-0.167 0.137-0.373 0.137-0.619s-0.046-0.452-0.137-0.619c-0.087-0.167-0.204-0.292-0.351-0.375s-0.304-0.125-0.47-0.125c-0.171 0-0.329 0.042-0.476 0.125s-0.266 0.208-0.357 0.375c-0.091 0.167-0.137 0.373-0.137 0.619s0.046 0.452 0.137 0.619c0.091 0.167 0.208 0.292 0.351 0.375 0.147 0.083 0.304 0.125 0.47 0.125zM7.849 30.583c-0.278 0-0.528-0.063-0.75-0.191s-0.399-0.306-0.53-0.536c-0.127-0.234-0.191-0.508-0.191-0.822s0.066-0.585 0.196-0.816c0.131-0.234 0.308-0.415 0.53-0.542 0.226-0.127 0.478-0.191 0.756-0.191s0.528 0.063 0.75 0.191c0.222 0.127 0.397 0.308 0.524 0.542 0.131 0.23 0.196 0.502 0.196 0.816s-0.066 0.587-0.196 0.822c-0.131 0.23-0.31 0.409-0.536 0.536-0.222 0.127-0.472 0.191-0.75 0.191zM7.849 30.154c0.171 0 0.329-0.042 0.476-0.125s0.266-0.208 0.357-0.375c0.091-0.167 0.137-0.373 0.137-0.619s-0.046-0.452-0.137-0.619c-0.087-0.167-0.204-0.292-0.351-0.375s-0.304-0.125-0.47-0.125c-0.171 0-0.329 0.042-0.476 0.125s-0.266 0.208-0.357 0.375c-0.091 0.167-0.137 0.373-0.137 0.619s0.046 0.452 0.137 0.619c0.091 0.167 0.208 0.292 0.351 0.375 0.147 0.083 0.304 0.125 0.47 0.125zM11.367 30.583c-0.294 0-0.552-0.067-0.774-0.202-0.218-0.135-0.389-0.319-0.512-0.554-0.119-0.234-0.179-0.5-0.179-0.798s0.061-0.562 0.185-0.792c0.123-0.234 0.294-0.417 0.512-0.548 0.218-0.135 0.476-0.202 0.774-0.202 0.242 0 0.456 0.050 0.643 0.149s0.331 0.238 0.435 0.417v-1.828h0.5v4.287h-0.452l-0.048-0.488c-0.095 0.143-0.232 0.272-0.411 0.387s-0.403 0.173-0.673 0.173zM11.42 30.148c0.198 0 0.373-0.046 0.524-0.137 0.155-0.095 0.274-0.226 0.357-0.393 0.087-0.167 0.131-0.361 0.131-0.583s-0.044-0.417-0.131-0.583c-0.083-0.167-0.202-0.296-0.357-0.387-0.151-0.095-0.325-0.143-0.524-0.143-0.195 0-0.369 0.048-0.524 0.143-0.151 0.091-0.27 0.22-0.357 0.387-0.083 0.167-0.125 0.361-0.125 0.583s0.042 0.417 0.125 0.583c0.087 0.167 0.206 0.298 0.357 0.393 0.155 0.091 0.329 0.137 0.524 0.137zM16.508 30.512c-0.27 0-0.482-0.066-0.637-0.196s-0.232-0.367-0.232-0.708v-1.625h-0.512v-0.423h0.512l0.066-0.708h0.435v0.708h0.869v0.423h-0.869v1.625c0 0.187 0.038 0.314 0.113 0.381 0.075 0.063 0.208 0.095 0.399 0.095h0.31v0.429h-0.452zM17.643 30.512v-2.953h0.452l0.042 0.566c0.091-0.194 0.23-0.349 0.417-0.464s0.417-0.173 0.691-0.173v0.524h-0.137c-0.175 0-0.335 0.032-0.482 0.095-0.147 0.060-0.264 0.163-0.351 0.31s-0.131 0.349-0.131 0.607v1.488h-0.5zM22.39 27.559v2.953h-0.452l-0.030-0.53c-0.095 0.187-0.232 0.333-0.411 0.441s-0.381 0.161-0.607 0.161c-0.349 0-0.629-0.105-0.839-0.316-0.206-0.214-0.31-0.542-0.31-0.982v-1.727h0.5v1.673c0 0.615 0.254 0.923 0.762 0.923 0.254 0 0.464-0.091 0.631-0.274 0.171-0.187 0.256-0.45 0.256-0.792v-1.53h0.5zM24.57 30.583c-0.282 0-0.536-0.063-0.762-0.191-0.222-0.131-0.399-0.312-0.53-0.542-0.127-0.234-0.191-0.506-0.191-0.816s0.064-0.579 0.191-0.81c0.131-0.234 0.308-0.415 0.53-0.542 0.226-0.131 0.48-0.196 0.762-0.196 0.349 0 0.643 0.091 0.881 0.274 0.242 0.183 0.395 0.427 0.458 0.732h-0.512c-0.040-0.183-0.137-0.323-0.292-0.423-0.155-0.103-0.335-0.155-0.542-0.155-0.167 0-0.323 0.042-0.47 0.125s-0.266 0.208-0.357 0.375c-0.091 0.167-0.137 0.373-0.137 0.619s0.046 0.452 0.137 0.619c0.091 0.167 0.21 0.294 0.357 0.381 0.147 0.083 0.304 0.125 0.47 0.125 0.206 0 0.387-0.050 0.542-0.149 0.155-0.103 0.252-0.248 0.292-0.435h0.512c-0.060 0.298-0.21 0.54-0.452 0.726s-0.538 0.28-0.887 0.28zM26.608 30.512v-4.287h0.5v2.578l1.209-1.244h0.613l-1.31 1.334 1.476 1.619h-0.637l-1.351-1.53v1.53h-0.5zM30.565 30.583c-0.353 0-0.647-0.089-0.881-0.268s-0.371-0.421-0.411-0.726h0.512c0.032 0.155 0.113 0.29 0.244 0.405 0.135 0.111 0.316 0.167 0.542 0.167 0.21 0 0.365-0.044 0.464-0.131 0.099-0.091 0.149-0.198 0.149-0.322 0-0.179-0.066-0.298-0.196-0.357-0.127-0.060-0.308-0.113-0.542-0.161-0.159-0.032-0.318-0.077-0.476-0.137s-0.292-0.143-0.399-0.25c-0.107-0.111-0.161-0.256-0.161-0.435 0-0.258 0.095-0.468 0.286-0.631 0.194-0.167 0.456-0.25 0.786-0.25 0.314 0 0.57 0.079 0.768 0.238 0.202 0.155 0.319 0.377 0.351 0.667h-0.494c-0.020-0.151-0.085-0.268-0.196-0.351-0.107-0.087-0.252-0.131-0.435-0.131-0.179 0-0.318 0.038-0.417 0.113-0.095 0.075-0.143 0.175-0.143 0.298 0 0.119 0.062 0.212 0.185 0.28 0.127 0.067 0.298 0.125 0.512 0.173 0.183 0.040 0.355 0.089 0.518 0.149 0.167 0.056 0.302 0.141 0.405 0.256 0.107 0.111 0.161 0.274 0.161 0.488 0.004 0.266-0.097 0.486-0.304 0.661-0.202 0.171-0.478 0.256-0.828 0.256z"></path>
</symbol>
<symbol id="icon-vector" viewBox="0 0 26 32">
<path fill="none" stroke="#d41443" stroke-width="6.4" stroke-miterlimit="4" stroke-linecap="round" stroke-linejoin="round" style="stroke: var(--color2, #d41443)" d="M3.542 3.2l16.825 12.8-16.825 12.8"></path>
</symbol>
<symbol id="icon-close" viewBox="0 0 32 32">
<path fill="none" stroke="#fff" stroke-width="2" stroke-miterlimit="4" stroke-linecap="butt" stroke-linejoin="miter" style="stroke: var(--color2, #fff)" d="M2.519 2l26.963 28"></path>
<path fill="none" stroke="#fff" stroke-width="2" stroke-miterlimit="4" stroke-linecap="butt" stroke-linejoin="miter" style="stroke: var(--color2, #fff)" d="M2 29.481l28-26.963"></path>
</symbol>
<symbol id="icon-facebook" viewBox="0 0 32 32">
<path fill="#afb1b8" style="fill: var(--color3, #afb1b8)" d="M21.329 5.313h2.921v-5.088c-0.504-0.069-2.237-0.225-4.256-0.225-4.212 0-7.097 2.649-7.097 7.519v4.481h-4.648v5.688h4.648v14.312h5.699v-14.311h4.46l0.708-5.688h-5.169v-3.919c0.001-1.644 0.444-2.769 2.735-2.769z"></path>
</symbol>
<symbol id="icon-instagram" viewBox="0 0 32 32">
<path fill="#afb1b8" style="fill: var(--color3, #afb1b8)" d="M31.969 9.408c-0.075-1.7-0.35-2.869-0.744-3.882-0.406-1.075-1.032-2.038-1.851-2.838-0.8-0.813-1.769-1.444-2.832-1.844-1.019-0.394-2.182-0.669-3.882-0.744-1.713-0.081-2.257-0.1-6.601-0.1s-4.888 0.019-6.595 0.094c-1.7 0.075-2.869 0.35-3.882 0.744-1.075 0.406-2.038 1.031-2.838 1.85-0.813 0.8-1.444 1.769-1.844 2.832-0.394 1.019-0.669 2.182-0.744 3.882-0.081 1.713-0.1 2.257-0.1 6.601s0.019 4.888 0.094 6.595c0.075 1.7 0.35 2.869 0.744 3.882 0.406 1.075 1.038 2.038 1.85 2.838 0.8 0.813 1.769 1.444 2.832 1.844 1.019 0.394 2.182 0.669 3.882 0.744 1.706 0.075 2.25 0.094 6.595 0.094s4.888-0.019 6.595-0.094c1.7-0.075 2.869-0.35 3.882-0.744 2.151-0.832 3.851-2.532 4.682-4.682 0.394-1.019 0.669-2.182 0.744-3.882 0.075-1.707 0.094-2.251 0.094-6.595s-0.006-4.888-0.081-6.595zM29.087 22.473c-0.069 1.563-0.331 2.407-0.55 2.969-0.538 1.394-1.644 2.5-3.038 3.038-0.563 0.219-1.413 0.481-2.969 0.55-1.688 0.075-2.194 0.094-6.464 0.094s-4.782-0.019-6.464-0.094c-1.563-0.069-2.407-0.331-2.969-0.55-0.694-0.256-1.325-0.663-1.838-1.194-0.531-0.519-0.938-1.144-1.194-1.838-0.219-0.563-0.481-1.413-0.55-2.969-0.075-1.688-0.094-2.194-0.094-6.464s0.019-4.782 0.094-6.464c0.069-1.563 0.331-2.407 0.55-2.969 0.256-0.694 0.663-1.325 1.2-1.838 0.519-0.531 1.144-0.938 1.838-1.194 0.563-0.219 1.413-0.481 2.969-0.55 1.688-0.075 2.194-0.094 6.464-0.094 4.276 0 4.782 0.019 6.464 0.094 1.563 0.069 2.407 0.331 2.969 0.55 0.694 0.256 1.325 0.662 1.838 1.194 0.531 0.519 0.938 1.144 1.194 1.838 0.219 0.563 0.481 1.413 0.55 2.969 0.075 1.688 0.094 2.194 0.094 6.464s-0.019 4.77-0.094 6.458z"></path>
<path fill="#afb1b8" style="fill: var(--color3, #afb1b8)" d="M16.059 7.783c-4.538 0-8.22 3.682-8.22 8.22s3.682 8.22 8.22 8.22c4.539 0 8.22-3.682 8.22-8.22s-3.682-8.22-8.22-8.22zM16.059 21.335c-2.944 0-5.332-2.388-5.332-5.332s2.388-5.332 5.332-5.332c2.944 0 5.332 2.388 5.332 5.332s-2.388 5.332-5.332 5.332z"></path>
<path fill="#afb1b8" style="fill: var(--color3, #afb1b8)" d="M26.524 7.458c0 1.060-0.859 1.919-1.919 1.919s-1.919-0.859-1.919-1.919c0-1.060 0.859-1.919 1.919-1.919s1.919 0.859 1.919 1.919z"></path>
</symbol>
<symbol id="icon-linkedin" viewBox="0 0 32 32">
<path fill="#afb1b8" style="fill: var(--color3, #afb1b8)" d="M31.992 32v-0.001h0.008v-11.736c0-5.741-1.236-10.164-7.948-10.164-3.227 0-5.392 1.771-6.276 3.449h-0.093v-2.913h-6.364v21.364h6.627v-10.579c0-2.785 0.528-5.479 3.977-5.479 3.399 0 3.449 3.179 3.449 5.657v10.401h6.62z"></path>
<path fill="#afb1b8" style="fill: var(--color3, #afb1b8)" d="M0.528 10.636h6.635v21.364h-6.635v-21.364z"></path>
<path fill="#afb1b8" style="fill: var(--color3, #afb1b8)" d="M3.843 0c-2.121 0-3.843 1.721-3.843 3.843s1.721 3.879 3.843 3.879c2.121 0 3.843-1.757 3.843-3.879-0.001-2.121-1.723-3.843-3.843-3.843v0z"></path>
</symbol>
<symbol id="icon-twitter" viewBox="0 0 32 32">
<path fill="#afb1b8" style="fill: var(--color3, #afb1b8)" d="M32 6.078c-1.19 0.522-2.458 0.868-3.78 1.036 1.36-0.812 2.398-2.088 2.886-3.626-1.268 0.756-2.668 1.29-4.16 1.588-1.204-1.282-2.92-2.076-4.792-2.076-3.632 0-6.556 2.948-6.556 6.562 0 0.52 0.044 1.020 0.152 1.496-5.454-0.266-10.28-2.88-13.522-6.862-0.566 0.982-0.898 2.106-0.898 3.316 0 2.272 1.17 4.286 2.914 5.452-1.054-0.020-2.088-0.326-2.964-0.808 0 0.020 0 0.046 0 0.072 0 3.188 2.274 5.836 5.256 6.446-0.534 0.146-1.116 0.216-1.72 0.216-0.42 0-0.844-0.024-1.242-0.112 0.85 2.598 3.262 4.508 6.13 4.57-2.232 1.746-5.066 2.798-8.134 2.798-0.538 0-1.054-0.024-1.57-0.090 2.906 1.874 6.35 2.944 10.064 2.944 12.072 0 18.672-10 18.672-18.668 0-0.29-0.010-0.57-0.024-0.848 1.302-0.924 2.396-2.078 3.288-3.406z"></path>
</symbol>
<symbol id="icon-vector" viewBox="0 0 34 32">
<path d="M30.341 3.556v24.889h-26.548v-24.889h26.548zM30.341 0h-26.548c-2.086 0-3.793 1.6-3.793 3.556v24.889c0 1.956 1.707 3.556 3.793 3.556h26.548c2.086 0 3.793-1.6 3.793-3.556v-24.889c0-1.956-1.707-3.556-3.793-3.556z"></path>
</symbol>
<symbol id="icon-icon-check" viewBox="0 0 42 32">
<path fill="#fff" stroke="#fff" stroke-width="0.64" stroke-miterlimit="4" stroke-linecap="butt" stroke-linejoin="miter" style="fill: var(--color2, #fff); stroke: var(--color2, #fff)" d="M6.263 15.205l-0.22-0.21-3.307 3.132 11.651 11.114 24.477-23.351-3.285-3.134-21.192 20.197-8.124-7.75z"></path>
</symbol>
<symbol id="icon-close-black-18dp-2-1" viewBox="0 0 32 32">
<path d="M26.667 7.303l-1.97-1.97-7.808 7.808-7.808-7.808-1.97 1.97 7.808 7.808-7.808 7.808 1.97 1.97 7.808-7.808 7.808 7.808 1.97-1.97-7.808-7.808 7.808-7.808z"></path>
</symbol>
<symbol id="icon-email-black" viewBox="0 0 32 32">
<path d="M26.667 5.333h-21.333c-1.467 0-2.653 1.2-2.653 2.667l-0.013 16c0 1.467 1.2 2.667 2.667 2.667h21.333c1.467 0 2.667-1.2 2.667-2.667v-16c0-1.467-1.2-2.667-2.667-2.667zM26.133 11l-9.427 5.893c-0.427 0.267-0.987 0.267-1.413 0l-9.427-5.893c-0.333-0.213-0.533-0.573-0.533-0.96 0-0.893 0.973-1.427 1.733-0.96l8.933 5.587 8.933-5.587c0.76-0.467 1.733 0.067 1.733 0.96 0 0.387-0.2 0.747-0.533 0.96z"></path>
</symbol>
<symbol id="icon-check1" viewBox="0 0 32 32">
<path fill="#fff" stroke="#fff" stroke-width="0.4923" stroke-miterlimit="4" stroke-linecap="butt" stroke-linejoin="miter" style="fill: var(--color2, #fff); stroke: var(--color2, #fff)" d="M4.817 15.389l-0.169-0.162-2.544 2.41 8.962 8.55 18.829-17.962-2.527-2.411-16.302 15.536-6.249-5.962z"></path>
</symbol>
<symbol id="icon-send" viewBox="0 0 32 32">
<path fill="#fff" style="fill: var(--color2, #fff)" d="M32 0l-32 18 10.227 3.788 15.773-14.788-11.998 16.186 0.010 0.004-0.012-0.004v8.814l5.735-6.691 7.265 2.691 5-28z"></path>
</symbol>
<symbol id="icon-person-black" viewBox="0 0 32 32">
<path d="M16 16c2.947 0 5.333-2.387 5.333-5.333s-2.387-5.333-5.333-5.333c-2.947 0-5.333 2.387-5.333 5.333s2.387 5.333 5.333 5.333zM16 18.667c-3.56 0-10.667 1.787-10.667 5.333v1.333c0 0.733 0.6 1.333 1.333 1.333h18.667c0.733 0 1.333-0.6 1.333-1.333v-1.333c0-3.547-7.107-5.333-10.667-5.333z"></path>
</symbol>
<symbol id="icon-phone-black" viewBox="0 0 32 32">
<path d="M24.882 19.773l-3.268-0.373c-0.785-0.090-1.557 0.18-2.11 0.733l-2.367 2.367c-3.641-1.853-6.626-4.825-8.478-8.478l2.38-2.38c0.553-0.553 0.823-1.325 0.733-2.11l-0.373-3.242c-0.154-1.299-1.248-2.277-2.56-2.277h-2.226c-1.454 0-2.663 1.209-2.573 2.663 0.682 10.987 9.469 19.761 20.443 20.443 1.454 0.090 2.663-1.119 2.663-2.573v-2.226c0.013-1.3-0.965-2.393-2.264-2.547v0z"></path>
</symbol>
<symbol id="icon-vector1" viewBox="0 0 32 32">
<path fill="#fff" stroke="#fff" stroke-width="0.4923" stroke-miterlimit="4" stroke-linecap="butt" stroke-linejoin="miter" style="fill: var(--color2, #fff); stroke: var(--color2, #fff)" d="M4.817 15.39l-0.17-0.162-0.17 0.16-2.373 2.25 0.187 0.18 8.775 8.369 0.17-0.162 18.658-17.799-0.187-0.177-2.341-2.233-0.17 0.162-16.13 15.375-6.25-5.962z"></path>
<symbol id="icon-Vector-1" viewBox="0 0 26 32">
<path fill="none" stroke="#d41443" style="stroke: var(--color1, #d41443)" stroke-linejoin="round" stroke-linecap="round" stroke-miterlimit="4" stroke-width="6.4" d="M5.171 3.2l14.17 12.8-14.17 12.8"></path>
</symbol>
<!-- products-icons -->
<symbol id="icon-products-arrow" viewBox="0 0 32 32">
<path fill="#D41443" style="fill: var(--color2, #D41443)" d="M19.414 27.414l10-10c0.781-0.781 0.781-2.047 0-2.828l-10-10c-0.781-0.781-2.047-0.781-2.828 0s-0.781 2.047 0 2.828l6.586 6.586h-19.172c-1.105 0-2 0.895-2 2s0.895 2 2 2h19.172l-6.586 6.586c-0.39 0.39-0.586 0.902-0.586 1.414s0.195 1.024 0.586 1.414c0.781 0.781 2.047 0.781 2.828 0z"></path>
</symbol>
<!-- footer-icons -->
<symbol id="icon-footer-facebook" viewBox="0 0 33 32">
<path d="M16.47 32c8.837 0 16-7.163 16-16s-7.163-16-16-16c-8.836 0-16 7.163-16 16s7.164 16 16 16z"></path>
<path fill="#fff" style="fill: var(--color2, #fff)" d="M20.916 15.981h-2.61v9.619h-3.955v-9.62h-1.88v-3.38h1.88v-2.187c0-1.565 0.74-4.014 3.99-4.014l2.93 0.012v3.281h-2.126c-0.348 0-0.839 0.176-0.839 0.922v1.99h2.956l-0.346 3.376z"></path>
</symbol>
<symbol id="icon-footer-github" viewBox="0 0 32 32">
<path d="M32 16c0 8.837-7.163 16-16 16s-16-7.163-16-16c0-8.837 7.163-16 16-16s16 7.163 16 16z"></path>
<path fill="#fff" style="fill: var(--color2, #fff)" d="M16 6.588c-5.17 0-9.412 4.242-9.412 9.412 0 4.411 3.096 8.418 7.206 9.412v-3.114c-0.407 0.089-0.782 0.092-1.197-0.030-0.556-0.165-1.008-0.535-1.343-1.1-0.214-0.361-0.593-0.752-0.988-0.723l-0.097-1.1c0.855-0.072 1.594 0.522 2.033 1.26 0.195 0.327 0.42 0.52 0.708 0.605 0.278 0.082 0.577 0.042 0.926-0.080 0.087-0.698 0.407-0.96 0.648-1.327-2.451-0.366-3.428-1.667-3.816-2.693-0.514-1.363-0.238-3.066 0.67-4.142 0.018-0.021 0.050-0.076 0.038-0.114-0.417-1.259 0.090-2.3 0.11-2.41 0.48 0.142 0.558-0.143 2.088 0.786l0.264 0.159c0.11 0.066 0.076 0.028 0.187 0.020 0.589-0.167 1.268-0.268 1.969-0.279l0.006-0c0.717 0.011 1.404 0.114 2.058 0.299l-0.056-0.014 0.086 0.008c-0.008 0 0.023-0.005 0.075-0.036 1.91-1.157 1.842-0.779 2.354-0.945 0.019 0.11 0.52 1.168 0.108 2.41-0.056 0.172 1.656 1.74 0.707 4.256-0.388 1.027-1.365 2.328-3.816 2.693v0.001c0.314 0.479 0.692 0.734 0.69 1.722v3.887c4.11-0.994 7.206-5 7.206-9.412 0-5.17-4.242-9.412-9.412-9.412z"></path>
</symbol>
<symbol id="icon-footer-telegram" viewBox="0 0 33 32">
<path d="M32.235 16c0 8.837-7.163 16-16 16s-16-7.163-16-16c0-8.837 7.163-16 16-16s16 7.163 16 16z"></path>
<path fill="#fff" style="fill: var(--color2, #fff)" d="M13.102 18.375l-0.317 4.17c0.454 0 0.651-0.183 0.887-0.401l2.13-1.9 4.415 3.017c0.81 0.42 1.38 0.199 1.599-0.695l2.897-12.673h0.001c0.257-1.118-0.433-1.554-1.222-1.28l-17.032 6.086c-1.162 0.42-1.145 1.026-0.198 1.3l4.355 1.264 10.114-5.907c0.476-0.294 0.91-0.131 0.553 0.163l-8.181 6.856z"></path>
</symbol>
<symbol id="icon-customers-reviews-house" viewBox="0 0 35 32">
<path fill="#d31342" style="fill: var(--color1, #d31342)" d="M32.64 15.4c0.256-0.274 0.413-0.644 0.413-1.050 0-0.47-0.21-0.89-0.541-1.173l-0.002-0.002-14.773-12.749c-0.319-0.265-0.733-0.425-1.184-0.425-0.466 0-0.892 0.171-1.218 0.454l0.002-0.002-14.821 13.403c-0.316 0.282-0.515 0.69-0.515 1.145 0 0.42 0.169 0.8 0.443 1.077l-0-0 0.373 0.381c0.613 0.635 1.611 0.709 2.224 0.168l1.107-0.979v14.328c0.006 0.879 0.72 1.589 1.6 1.589 0.005 0 0.009-0 0.014-0h5.775c0.004 0 0.009 0 0.013 0 0.88 0 1.594-0.71 1.6-1.589v-10.025h7.371v10.024c-0.013 0.88 0.624 1.589 1.515 1.589h6.123c0.003 0 0.007 0 0.011 0 0.88 0 1.594-0.71 1.6-1.589v-14.126l0.685 0.592c0.376 0.325 1.168 0.064 1.765-0.587l0.421-0.453z"></path>
<symbol id="icon-for-contacts-btn" viewBox="0 0 26 32">
<path fill="none" stroke="#fff" style="stroke: var(--color1, #fff)" stroke-linejoin="round" stroke-linecap="round" stroke-miterlimit="4" stroke-width="6.4" d="M5.171 3.2l14.17 12.8-14.17 12.8"></path>
</symbol>
<symbol id="icon-close-about" viewBox="0 0 32 32">
<path d="M32 3.223l-3.223-3.223-12.777 12.777-12.777-12.777-3.223 3.223 12.777 12.777-12.777 12.777 3.223 3.223
12.777-12.777 12.777 12.777 3.223-3.223-12.777-12.777 12.777-12.777z">
</path>
</symbol>
<symbol id="icon-close-contacts" viewBox="0 0 32 32">
<path d="M32 3.223l-3.223-3.223-12.777 12.777-12.777-12.777-3.223 3.223 12.777 12.777-12.777 12.777 3.223 3.223
12.777-12.777 12.777 12.777 3.223-3.223-12.777-12.777 12.777-12.777z">
</path>
</symbol>
<!-- callback-form-email-icon -->
<symbol id="icon-email-callback-form" viewBox="0 0 32 32">
<path
d="M26.667 5.333h-21.333c-1.467 0-2.652 1.2-2.652 2.667l-0.014 16c0 1.467 1.2 2.667 2.667 2.667h21.333c1.467 0 2.667-1.2 2.667-2.667v-16c0-1.467-1.2-2.667-2.667-2.667zM26.133 11.001l-9.426 5.892c-0.201 0.126-0.446 0.2-0.708 0.2s-0.506-0.075-0.713-0.204l0.006 0.003-9.426-5.892c-0.336-0.201-0.557-0.562-0.557-0.975 0-0.625 0.507-1.132 1.132-1.132 0.233 0 0.449 0.070 0.629 0.19l-0.004-0.003 8.933 5.586 8.933-5.588c0.176-0.118 0.392-0.188 0.624-0.188 0.625 0 1.132 0.507 1.132 1.132 0 0.413-0.221 0.775-0.552 0.972l-0.005 0.003z">
</path>
</symbol>
<!-- callback-form-phone-icon -->
<symbol id="icon-phone-callback-form" viewBox="0 0 32 32">
<path
d="M24.882 19.774l-3.268-0.373c-0.090-0.011-0.194-0.018-0.3-0.018-0.707 0-1.347 0.287-1.81 0.75l-2.368 2.368c-3.669-1.894-6.585-4.81-8.427-8.372l-0.051-0.108 2.382-2.377c0.463-0.463 0.75-1.103 0.75-1.81 0-0.106-0.006-0.21-0.019-0.312l0.001 0.012-0.373-3.243c-0.155-1.287-1.24-2.276-2.557-2.276-0.001 0-0.002 0-0.003 0h-2.226c-1.454 0-2.663 1.209-2.574 2.661 0.683 10.987 9.47 19.762 20.444 20.444 1.452 0.089 2.663-1.12 2.663-2.574v-2.226c0-0.004 0-0.008 0-0.012 0-1.308-0.985-2.386-2.253-2.532l-0.012-0.001z">
</path>
</symbol>
<!-- callback-form-person-icon -->
<symbol id="icon-person-callback-form" viewBox="0 0 32 32">
<path
d="M16 16c2.946 0 5.333-2.388 5.333-5.333s-2.388-5.333-5.333-5.333v0c-2.946 0-5.333 2.388-5.333 5.333s2.388 5.333 5.333 5.333v0zM16 18.667c-3.561 0-10.667 1.787-10.667 5.333v1.333c0 0.732 0.599 1.333 1.333 1.333h18.667c0.732 0 1.333-0.601 1.333-1.333v-1.333c0-3.547-7.108-5.333-10.667-5.333z">
</path>
</symbol>
<!-- icon-check -->
<symbol id="icon-check" viewBox="0 0 42 32">
<path stroke-linejoin="miter" stroke-linecap="butt" stroke-miterlimit="4" stroke-width="0.64"
d="M6.262 15.206l-0.221-0.211-0.221 0.208-3.085 2.925 0.243 0.234 11.408 10.88 0.221-0.211 24.256-23.139-0.243-0.23-3.043-2.902-0.221 0.211-20.97 19.987-8.125-7.75z">
</path>
</symbol>
<!-- icon-location -->
<symbol id="location" viewBox="0 0 20 20">
<path d="M10 20s-7-9.13-7-13c0-3.866 3.134-7 7-7s7 3.134 7 7v0c0 3.87-7 13-7 13zM10 9c1.105 0 2-0.895 2-2s-0.895-2-2-2v0c-1.105 0-2 0.895-2 2s0.895 2 2 2v0z"></path>
</symbol>
</defs>
</svg>